<svg width="268" height="207" viewBox="0 0 268 207" fill="none" xmlns="http://www.w3.org/2000/svg">
<mask id="mask0_1358_6914" style="mask-type:alpha" maskUnits="userSpaceOnUse" x="-1142" y="0" width="1420" height="218">
<rect x="-1142" y="0.848236" width="1420" height="216.683" rx="10" fill="white"/>
</mask>
<g mask="url(#mask0_1358_6914)">
<g style="mix-blend-mode:multiply" opacity="0.7">
<path d="M-1462.6 -32.7158L-1455.15 -29.5094L-1444.17 -27.7774C-1444.17 -27.7774 -1434.35 -27.6353 -1427.78 -25.0322C-1421.2 -22.4291 -1419.22 -20.7641 -1412.57 -18.8973C-1405.92 -17.0305 -1390.01 -13.106 -1390.01 -13.106C-1390.01 -13.106 -1374.94 -6.98369 -1365.89 -6.16796C-1356.83 -5.35223 -1354.91 -1.68232 -1346.07 1.16905C-1337.22 4.02041 -1327.58 5.93837 -1323.1 6.998C-1318.66 8.05344 -1303.38 15.3312 -1303.38 15.3312L-1292.78 24.8967L-1275.84 42.9027C-1275.84 42.9027 -1251.43 49.7792 -1243.56 51.1875C-1235.69 52.5525 -1226.43 51.3759 -1216.46 54.2844C-1206.5 57.1928 -1194.4 61.6056 -1184.25 63.2189C-1174.16 64.828 -1163.02 59.4499 -1158.72 61.848C-1154.42 64.2461 -1152.99 58.955 -1143.01 61.7335C-1138.3 60.147 -1135.95 62.3693 -1125.19 57.9623C-1114.48 53.5511 -1094.18 56.2105 -1094.18 56.2105L-1083.81 55.1343C-1073.44 54.0581 -1066.7 52.7422 -1059.93 53.4829C-1053.17 54.2236 -1049.87 55.3952 -1039.27 52.5474C-1028.72 49.6954 -1025.06 47.3588 -1013.59 47.0369C-1002.13 46.7149 -999.233 40.419 -984.781 44.3438C-970.33 48.2685 -974.348 42.6612 -956.507 46.8913C-938.666 51.1215 -909.189 39.6152 -901.242 40.2439C-893.294 40.8726 -879.659 27.5892 -868.174 26.6134C-856.642 25.6418 -848.752 15.3813 -839.561 14.8544C-830.37 14.3275 -820.549 9.00554 -810.178 7.92934C-799.806 6.85314 -788.343 17.5461 -780.47 18.9111C-772.597 20.2761 -780.701 23.917 -761.888 29.6335C-743.074 35.35 -734.528 42.5018 -727.974 45.7587C-721.466 49.0114 -717.421 54.3589 -708.638 57.8166C-699.854 61.2744 -698.818 66.2633 -691.994 66.8782C-685.169 67.4932 -681.053 73.0656 -667.709 76.366C-654.365 79.6665 -659.831 82.7145 -645.804 90.7972C-631.778 98.8799 -631.711 98.2302 -622.928 101.688C-614.145 105.146 -616.308 106.131 -603.021 108.159C-578.202 111.051 -578.136 110.401 -558.935 112.787C-539.781 115.168 -548.629 106.853 -530.044 103.806C-523.417 97.1913 -519.939 92.0409 -503.494 89.7635C-479.329 88.0506 -482.708 82.1512 -472.142 79.1693C-461.576 76.1874 -446.075 69.8473 -439.221 69.7217C-432.367 69.5962 -421.617 65.2758 -415.725 63.0967C-409.791 60.965 -400.361 58.0993 -393.312 56.068C-386.264 54.0368 -379.776 46.4912 -374.996 44.649C-370.262 42.8025 -358.434 55.8887 -346.831 54.2241C-335.233 52.6028 -323.252 63.7357 -318.631 63.4527C-314.061 63.2088 -311.499 66.106 -307.794 63.7735C-304.134 61.4369 -300.46 63.9972 -302.74 64.7534C-289.752 60.5472 -286.297 60.2029 -280.292 57.3783C-274.287 54.5536 -262.21 48.2547 -262.21 48.2547C-262.21 48.2547 -259.324 42.4827 -252.042 49.1708C-244.714 55.8632 -230.996 44.5105 -230.996 44.5105L-205.86 49.7914L-184.891 56.8823C-184.891 56.8823 -168.006 64.9603 -162.75 69.4553C-157.493 73.9503 -158.666 68.4682 -149.887 71.9693C-141.104 75.427 -139.055 66.3887 -135.617 66.2176C-132.18 66.0466 -121.569 62.6316 -121.569 62.6316C-121.569 62.6316 -116.187 58.5706 -110.744 61.2465C-105.302 63.9224 -107.378 63.6043 -104.055 64.5593C-100.732 65.5144 -91.8828 68.3224 -88.4936 68.6278C-85.1044 68.9332 -77.0989 68.9988 -77.0989 68.9988C-77.0989 68.9988 -69.5243 67.3209 -62.6995 67.9359C-55.8747 68.5508 -49.155 63.7799 -41.7608 69.8225C-34.3665 75.8652 -32.581 80.3971 -26.0264 83.654C-19.5182 86.9068 -18.4283 87.7044 -9.57873 90.5124C-0.729188 93.3205 -6.39337 92.8101 1.40835 94.8681C9.21007 96.9261 -1.27411 98.6478 28.0942 101.95C57.4626 105.251 67.763 104.868 73.2942 106.678C78.8209 108.531 70.0424 105.03 78.8211 108.531C87.6042 111.989 105.37 116.955 110.967 118.115C116.565 119.275 121.552 120.905 121.552 120.905C121.552 120.905 129.03 120.18 135.469 124.563C141.908 128.946 134.31 124.895 141.862 128.942C149.46 132.992 152.783 133.947 156.035 135.595C159.286 137.243 164.265 141.713 164.265 141.713L142.933 350.301L-1486.75 203.462L-1462.59 -32.8025L-1462.6 -32.7158Z" fill="#E4F0F7"/>
<path d="M-1178.45 58.6727L-1170.71 61.1963L-1159.61 61.936C-1159.61 61.936 -1149.82 61.1963 -1143.01 63.1978C-1136.2 65.1993 -1134.05 66.6787 -1127.24 67.9405C-1120.43 69.2023 -1104.2 71.6824 -1104.2 71.6824C-1104.2 71.6824 -1088.58 76.425 -1079.48 76.425C-1070.39 76.425 -1068.1 79.9059 -1059.01 81.9509C-1049.91 83.9959 -1040.12 85.0401 -1035.55 85.6928C-1031.02 86.3454 -1015.07 92.2194 -1015.07 92.2194L-1003.55 100.791L-984.848 117.194C-984.848 117.194 -959.849 121.85 -951.873 122.546C-943.898 123.199 -934.803 121.197 -924.589 123.199C-914.374 125.2 -901.875 128.507 -891.614 129.203C-881.4 129.9 -870.859 123.547 -866.335 125.548C-861.811 127.55 -860.924 122.155 -850.71 124.026C-846.186 122.024 -843.621 124.026 -833.36 118.674C-823.146 113.322 -802.67 114.149 -802.67 114.149L-792.456 112.147C-782.242 110.146 -775.665 108.231 -768.856 108.362C-762.046 108.492 -758.642 109.363 -748.381 105.577C-738.166 101.792 -734.762 99.1376 -723.381 97.7887C-712.001 96.4399 -709.762 89.9133 -694.977 92.5239C-680.192 95.1346 -684.763 89.9133 -666.573 92.5239C-648.383 95.1346 -620.213 81.0371 -612.237 80.9501C-604.261 80.8631 -592.042 66.4176 -580.708 64.4161C-569.328 62.4146 -562.518 51.4934 -553.423 50.1446C-544.328 48.7958 -535.094 42.6173 -524.879 40.6158C-514.665 38.6143 -502.165 48.2302 -494.19 48.8828C-486.214 49.5355 -493.91 53.8866 -474.601 57.8895C-455.292 61.8925 -446.057 68.245 -439.201 70.8992C-432.391 73.5533 -427.82 78.5135 -418.725 81.1677C-409.63 83.8218 -408.091 88.695 -401.235 88.695C-394.379 88.695 -389.715 93.8728 -376.096 95.9613C-362.477 98.0498 -367.607 101.574 -352.822 108.362C-338.037 115.149 -338.037 114.497 -328.942 117.151C-319.847 119.805 -321.9 120.98 -308.467 121.807C-283.468 122.459 -283.468 121.807 -264.112 122.459C-244.803 123.112 -254.457 115.628 -236.267 110.929C-230.344 103.75 -227.406 98.3109 -211.268 94.5689C-187.388 90.6965 -191.353 85.1272 -181.138 81.2112C-170.924 77.2952 -156.139 69.5939 -149.33 68.8542C-142.52 68.1145 -132.259 62.8497 -126.616 60.1521C-120.925 57.4979 -111.831 53.7995 -105.021 51.1454C-98.2114 48.4912 -92.5214 40.3983 -87.9506 38.1357C-83.4264 35.8732 -70.3206 47.8386 -58.9403 45.1409C-47.5599 42.4868 -34.5006 52.4942 -29.9298 51.798C-25.4058 51.1454 -22.5605 53.7995 -19.1091 51.1454C-15.7043 48.4912 -11.7866 50.7103 -13.9788 51.6675C-1.479 46.3157 1.92578 45.663 7.61584 42.3127C13.306 38.9624 24.6862 31.6091 24.6862 31.6091C24.6862 31.6091 26.9717 25.6047 34.9005 31.6091C42.8761 37.6136 55.3757 25.0826 55.3757 25.0826L80.9348 28.0848L102.529 33.2625C102.529 33.2625 120.159 39.7891 125.85 43.7921C131.54 47.7951 129.814 42.4433 138.909 45.1409C148.004 47.7951 149.123 38.6143 152.528 38.1357C155.933 37.6571 166.147 33.306 166.147 33.306C166.147 33.306 171.091 28.7809 176.781 30.9565C182.471 33.132 180.372 33.0015 183.777 33.6541C187.182 34.3068 196.277 36.3083 199.682 36.3083C203.086 36.3083 211.062 35.6556 211.062 35.6556C211.062 35.6556 218.431 33.306 225.287 33.306C232.143 33.306 238.347 27.9542 246.322 33.306C254.298 38.6578 256.536 43.0089 263.393 45.663C270.202 48.3172 271.368 49.0134 280.463 51.0148C289.558 53.0163 283.868 53.0163 291.843 54.3651C299.819 55.714 289.558 58.3681 319.128 59.0208C348.698 59.6734 358.912 58.3681 364.603 59.6734C370.293 61.0223 361.198 58.3246 370.293 61.0223C379.388 63.6764 397.578 67.0267 403.268 67.6794C408.958 68.3321 414.088 69.5068 414.088 69.5068C414.088 69.5068 421.457 68.1145 428.313 71.8999C435.17 75.6853 427.194 72.335 435.123 75.6853C443.099 79.0357 446.503 79.6883 449.908 81.0372C453.313 82.386 458.723 86.3889 458.723 86.3889V295.936H-1178.45V58.5857V58.6727Z" fill="#F3F8FB"/>
</g>
</g>
</svg>
