<svg width="68" height="69" viewBox="0 0 68 69" fill="none" xmlns="http://www.w3.org/2000/svg">
<path d="M21.3027 30.0243H19.0781V32.2445H21.3027V30.0243Z" fill="#076CB4"/>
<path d="M24.7996 34.467H16.8516V36.6872H24.7996V34.467Z" fill="#076CB4"/>
<path fill-rule="evenodd" clip-rule="evenodd" d="M17.5235 56.8647C17.192 56.2963 16.7672 55.835 16.2513 55.411C16.7275 54.8426 16.9539 54.1413 16.9539 53.3865C16.9539 51.5088 15.4576 50.0154 13.5903 50.0154C11.7229 50.0154 10.2126 51.5088 10.2126 53.3865C10.2126 54.1413 10.4904 54.8402 10.9152 55.411C10.6375 55.6486 10.3457 55.9282 10.1193 56.2054L7.62869 53.7197L6.03906 55.3202L9.17859 58.414C9.1249 58.6004 9.08524 58.838 9.08524 59.022C9.08524 61.4146 10.9526 63.3855 13.2985 63.5183C15.6957 63.6651 17.7499 61.9318 18.0416 59.5392L22.2549 55.3225L20.6653 53.722L17.5258 56.8671L17.5235 56.8647ZM13.5879 52.2636C14.0501 52.2636 14.475 52.5548 14.608 52.9648C14.8064 53.3865 14.7014 53.8641 14.3839 54.1949C14.0525 54.5118 13.588 54.6189 13.1631 54.4209C12.7406 54.2345 12.4605 53.8664 12.4605 53.3888C12.4605 52.7808 12.9787 52.2659 13.5879 52.2659V52.2636ZM13.5879 61.2679C12.6869 61.2679 11.8513 60.7134 11.5222 59.8654C11.151 59.0197 11.3774 58.0808 11.9867 57.4192C12.6496 56.7716 13.6276 56.5735 14.4773 56.9556C15.3129 57.2864 15.8288 58.1321 15.8288 59.0174C15.8288 60.2871 14.8484 61.2655 13.5903 61.2655L13.5879 61.2679Z" fill="#076CB4"/>
<path fill-rule="evenodd" clip-rule="evenodd" d="M67.0717 20.384L59.2171 12.5702C56.9249 10.2825 53.1761 10.2825 50.8838 12.5702L44.9362 18.4807L35.6227 9.21083C34.4976 8.09957 33.0527 7.49152 31.4514 7.49152C29.8501 7.49152 28.4169 8.09957 27.3315 9.21083L0.331499 36.0256C0.144761 36.2632 0 36.5428 0 36.82V66.9942C0 67.5883 0.515883 68.1031 1.12745 68.1031H66.2804C66.8896 68.1031 67.4055 67.5883 67.4055 66.9942V21.1785C67.4055 20.9012 67.3122 20.624 67.0741 20.384H67.0717ZM52.4735 14.1428C53.916 12.7543 56.2223 12.7543 57.6275 14.1428L60.1974 16.7078L59.866 17.0386C59.4038 17.4999 58.6078 17.4999 58.0896 17.0386C56.409 15.4125 53.7316 15.4125 52.009 17.0386C51.5304 17.4999 50.7368 17.4999 50.221 17.0386L49.9035 16.7078L52.4735 14.1428ZM28.8791 10.7973C30.3356 9.39487 32.5742 9.39487 34.0331 10.7973L37.7282 14.4736L37.3967 14.8044C36.603 15.5988 35.2912 15.5988 34.4952 14.8044C32.8123 13.127 30.0975 13.127 28.4122 14.8044C27.6186 15.5988 26.3068 15.5988 25.5108 14.8044L25.1793 14.4736L28.8744 10.7973H28.8791ZM20.2144 19.4056L32.112 31.2381H28.5476L21.0104 23.7411C20.5996 23.3195 19.897 23.3195 19.4208 23.7411L11.2347 31.8881L9.4583 30.1152L20.2168 19.4056H20.2144ZM29.2106 35.7088V33.4746H37.7282L39.969 35.7088H29.2106ZM38.1927 37.9429V41.2884H33.7016V37.9429H38.1927ZM31.4491 37.9429V41.2884H29.2106V37.9429H31.4491ZM26.958 32.813V41.2884H14.5959V31.7017L20.2144 26.1081L26.958 32.813ZM2.25023 37.2813L7.86868 31.7017L10.4387 34.2527C10.9008 34.6767 11.6035 34.6767 12.0283 34.2527L12.3597 33.9359V41.2884H2.25023V37.2813ZM2.25023 65.869V43.5225H38.8929L63.428 65.869H2.24789H2.25023ZM65.153 64.4269L40.4452 41.8964V37.9429H42.6837C43.1622 37.9429 43.5847 37.6517 43.7154 37.2417C43.9022 36.82 43.8088 36.3564 43.4773 36.0256L38.9863 31.5572C38.7995 31.3732 38.5218 31.2404 38.1903 31.2404H35.2889L21.8157 17.8354L23.5921 16.0625L23.9235 16.3793C25.6065 18.0567 28.3212 18.0567 30.0065 16.3793C30.8002 15.5988 32.112 15.5988 32.9079 16.3793C34.5909 18.0567 37.3056 18.0567 38.991 16.3793L39.3224 16.0625L65.1553 41.752V64.4292L65.153 64.4269ZM65.153 38.5906L46.5259 20.0672L48.3022 18.2943L48.6337 18.6111C50.0365 19.9204 52.198 19.9204 53.6009 18.6111C54.4366 17.833 55.7064 17.833 56.5023 18.6111C57.1513 19.2728 58.0383 19.6432 58.979 19.6432C59.9197 19.6432 60.8067 19.2728 61.4556 18.6111L61.787 18.2943L65.1507 21.6397V38.5906H65.153Z" fill="#076CB4"/>
<path fill-rule="evenodd" clip-rule="evenodd" d="M3.45589 12.2534H19.1536C21.035 12.2534 22.5195 10.7321 22.5195 8.82878C22.5732 7.58472 22.1087 6.44783 21.2591 5.53692C20.4257 4.69125 19.2586 4.21366 18.0401 4.25326H17.7087C16.782 2.16353 14.3964 0.828613 11.3105 0.828613C8.03796 0.828613 5.93248 1.9655 4.95211 4.25326H4.581C3.36254 4.16007 2.19542 4.63766 1.30841 5.49499C0.461085 6.39425 -0.00341935 7.58472 0.0899498 8.82878C0.0899498 10.7321 1.58617 12.2534 3.45355 12.2534H3.45589ZM2.90037 7.10947C3.36488 6.68546 3.97411 6.44783 4.58334 6.54102H5.69443C6.21263 6.54102 6.63511 6.2102 6.78216 5.73495C7.19299 4.34645 8.04029 3.1187 11.3129 3.1187C13.1289 3.1187 15.4212 3.78033 15.8437 5.64409C15.937 6.16128 16.3992 6.54335 16.9174 6.54335H18.0448C18.654 6.48977 19.2633 6.72973 19.6741 7.16538C20.0966 7.64297 20.337 8.21141 20.2834 8.83111C20.2834 9.45314 19.7651 9.968 19.1559 9.968H3.45823C2.84899 9.968 2.33077 9.45314 2.33077 8.83111C2.29109 8.20908 2.47787 7.58705 2.90037 7.11179V7.10947Z" fill="#076CB4"/>
</svg>
