<svg width="60" height="64" viewBox="0 0 60 64" fill="none" xmlns="http://www.w3.org/2000/svg">
<path fill-rule="evenodd" clip-rule="evenodd" d="M58.8731 56.9821C58.2016 55.2143 56.3317 54.3199 54.4807 54.9315C53.6454 55.2143 52.8333 55.6018 51.998 55.8447C51.614 55.9453 51.2467 55.9851 50.8606 55.9453C49.6811 55.7421 48.4597 55.518 47.2803 55.3169C45.7336 55.0299 44.126 54.7472 42.4786 54.4623C43.4776 53.1846 44.3695 51.9447 45.2656 50.7466C46.913 48.5138 46.9949 46.1385 45.5489 43.7633C44.2688 41.6709 42.9047 39.6433 41.6455 37.5509C40.6885 36.026 39.8553 34.5054 38.9613 33.0245C38.6738 32.5574 38.2499 32.3145 37.6392 32.4548C37.0704 32.658 36.7431 33.0853 36.8459 33.6529C36.9256 34.2226 37.1712 34.7504 37.4944 35.2175C39.5091 38.506 41.5846 41.7756 43.6581 45.1059C44.5542 46.5868 44.4534 47.9482 43.4776 49.3265C42.6213 50.4638 41.6874 51.5614 40.934 52.7594C40.2625 53.7544 39.6119 54.1398 38.4304 53.7941C37.1691 53.4297 35.849 53.2873 34.5269 53.0443C34.5668 52.9438 34.5668 52.9019 34.6276 52.8411C35.849 51.664 37.0705 50.5266 38.2898 49.3286C39.9372 47.8079 40.1407 46.2035 38.8983 44.2932C36.6003 40.8226 34.3422 37.31 32.0253 33.8372C31.8427 33.5126 31.6182 33.167 31.3747 32.8423C30.9466 32.3145 30.3779 32.2747 29.8679 32.5993C29.402 32.9428 29.2194 33.5545 29.4839 34.12C29.5846 34.3232 29.7273 34.5075 29.8281 34.6499C32.168 38.2232 34.487 41.7756 36.8459 45.3489C37.6392 46.526 37.5972 46.8695 36.4996 47.8645C35.0558 49.2448 33.5909 50.667 32.1281 52.0871C31.7609 52.4117 31.4167 52.5542 30.9487 52.4746C24.4199 51.2765 17.8302 50.1391 11.2782 48.962C9.30551 48.6164 7.45451 49.8564 7.12923 51.8043C6.80394 53.6098 8.06524 55.4174 9.9561 55.7421C17.1565 56.9821 24.3569 58.2199 31.5154 59.4976C38.0064 60.5952 44.4534 61.7723 50.9613 62.8678C51.6119 62.9704 52.3254 62.9306 52.934 62.7274C54.2561 62.3609 55.5174 61.8331 56.7997 61.3471C58.6297 60.6371 59.5237 58.7897 58.8731 56.9842V56.9821ZM55.9854 59.1751C54.7661 59.6422 53.5048 60.1302 52.2855 60.5554C52.0421 60.5952 51.7965 60.635 51.5741 60.635C49.9665 60.3522 48.38 60.1281 46.8144 59.8432C41.5049 58.8881 36.1764 57.9749 30.8669 57.0219C26.3905 56.272 21.9162 55.4572 17.4818 54.7074C15.1838 54.2801 12.8858 53.8968 10.6088 53.4695C9.77352 53.3271 9.30552 52.7992 9.44823 52.129C9.52797 51.4189 10.1408 51.1341 10.9928 51.2786C17.6245 52.4138 24.2163 53.6119 30.8669 54.7493C35.807 55.6625 40.7913 56.5171 45.7357 57.4094C47.6077 57.755 49.4985 58.0796 51.3306 58.3645C51.5741 58.4064 51.8595 58.3645 52.082 58.2639C53.1187 57.9393 54.1554 57.5141 55.1942 57.1266C55.9057 56.8836 56.4744 57.1266 56.699 57.7968C56.9424 58.4064 56.6591 58.9342 55.9875 59.1772L55.9854 59.1751Z" fill="#076CB4"/>
<path fill-rule="evenodd" clip-rule="evenodd" d="M8.11902 32.2956H11.3341V35.5024C11.3341 36.6188 12.1463 37.1466 13.183 36.6188C14.2827 36.1119 15.3194 35.5024 16.459 35.0143C17.6384 34.5075 18.5345 33.9 18.0665 32.2956H48.0077C49.4306 32.2349 50.7528 32.3354 51.8923 33.2905C52.035 33.433 52.2596 33.5146 52.503 33.6173C54.5765 34.409 56.9962 33.5146 58.035 31.5856C59.0319 29.6565 58.3603 27.4844 56.3876 26.2046C55.2879 25.5574 54.2113 24.8453 53.1116 24.175C52.6037 23.8922 52.3183 23.4252 52.2155 22.8554C51.5041 19.1816 49.7139 16.1571 46.8661 13.8007C43.2669 10.8369 38.2617 11.5071 35.6174 15.2627C33.055 18.8988 30.5513 22.5308 28.0896 26.1648C27.7454 26.6319 27.5209 27.1598 27.3383 27.6687C27.0949 28.2762 27.3782 28.9066 27.9469 29.1307C28.5576 29.3109 29.1263 29.0888 29.4537 28.4814C29.5943 28.1987 29.6972 27.851 29.8818 27.6268C32.4862 23.8106 35.0466 20.0341 37.7328 16.2995C39.4012 14.0038 42.757 13.5787 44.9731 15.2627C47.6174 17.2944 49.3257 19.9335 49.9364 23.2429C50.1798 24.5604 50.7884 25.5574 51.97 26.2067C53.1095 26.877 54.2491 27.587 55.3488 28.339C56.4652 29.0888 56.4254 30.5529 55.2459 31.263C54.4338 31.7699 53.6384 31.7301 52.8262 31.2002C51.6069 30.4084 50.3666 29.5978 49.1431 28.9066C48.4736 28.4793 48.1861 27.9515 48.1064 27.2414C47.9028 26.2046 47.6782 25.2097 47.3949 24.2358C47.0067 23.0984 46.1148 22.4282 44.9752 22.2878C43.8357 22.1056 42.7989 22.4282 42.1483 23.4252C41.1515 24.8872 40.2974 26.389 39.4033 27.9515C39.0571 28.5191 39.3005 29.1684 39.8713 29.4533C40.4002 29.7361 41.0088 29.5957 41.3761 29.0867C41.4768 28.9464 41.5796 28.7621 41.7202 28.5589C42.3708 27.3818 43.0844 26.2046 43.7958 25.0694C43.9385 24.7824 44.3645 24.5604 44.608 24.6023C44.8325 24.663 45.1179 24.9856 45.2585 25.2705C45.4411 25.4946 45.4411 25.88 45.5439 26.2046C45.9322 27.4844 45.7265 28.9066 46.7863 29.9811H18.1442V29.4135C18.2869 28.4793 17.8609 27.9515 17.0067 27.6268C15.7434 27.0592 14.545 26.3492 13.2838 25.7396C12.1043 25.172 11.332 25.6391 11.332 26.9587V30.023H8.07704C7.26487 30.023 6.79688 30.4503 6.79688 31.1604C6.79688 31.8704 7.26488 32.2977 8.11692 32.2977L8.11902 32.2956ZM13.6111 29.2292C13.6111 29.0469 13.6111 28.8019 13.651 28.5191C14.3625 28.8438 15.034 29.1684 15.6468 29.514C15.7874 29.5957 15.8294 29.7968 15.8902 29.9811C15.9301 30.3079 15.8902 30.6304 15.8902 30.976C15.8902 32.8632 15.6468 33.1502 13.6111 33.7576V29.2313V29.2292Z" fill="#076CB4"/>
<path fill-rule="evenodd" clip-rule="evenodd" d="M48.5357 11.8109C51.7089 11.8109 54.1517 9.33509 54.1517 6.16603C54.1517 2.99696 51.6291 0.60498 48.4958 0.60498C45.3626 0.60498 42.9219 3.08075 42.9219 6.20582C42.9219 9.3309 45.4046 11.8109 48.5378 11.8109H48.5357ZM48.5357 2.83778C50.3678 2.90061 51.9124 4.38146 51.9124 6.20792C51.9124 8.03437 50.3049 9.58015 48.4958 9.58015C46.6868 9.58015 45.159 7.97572 45.159 6.20792C45.2199 4.38146 46.7666 2.83778 48.5357 2.83778Z" fill="#076CB4"/>
<path fill-rule="evenodd" clip-rule="evenodd" d="M19.4296 59.0514C18.3908 58.8881 17.3541 58.7477 16.2544 58.5843C13.3855 58.2408 10.4978 57.8345 7.57022 57.447C5.49467 57.1831 3.42123 56.9401 1.38555 56.6364C0.573384 56.6364 0.0634228 57.0428 0.00256248 57.734C-0.0373116 58.444 0.390808 58.9509 1.10224 59.0514C2.17884 59.1939 3.21767 59.3551 4.2544 59.4976C7.4695 59.9437 10.7434 60.3522 13.9375 60.7983C15.6857 60.9994 17.4338 61.2633 19.1862 61.4665C19.8976 61.5063 20.3656 61.0622 20.4265 60.4108C20.4663 59.7007 20.0802 59.152 19.4296 59.0493V59.0514Z" fill="#076CB4"/>
<path fill-rule="evenodd" clip-rule="evenodd" d="M1.16125 45.6735C4.47709 46.1008 7.79291 46.5072 11.1088 46.9114C12.2693 47.0538 13.4257 47.1984 14.5862 47.3387C15.2976 47.3785 15.8894 46.9742 15.9692 46.3249C16.072 45.7783 15.6439 45.2693 14.9115 45.1269C14.6282 45.0871 14.3805 45.0473 14.0972 45.0033C11.9818 44.7603 9.86846 44.4964 7.75304 44.2115C5.63762 43.9874 3.48232 43.7046 1.40677 43.4805C0.594601 43.4805 0.0636592 43.8471 0.00279879 44.4356C-0.0370753 45.1269 0.349079 45.5939 1.16335 45.6735H1.16125Z" fill="#076CB4"/>
<path fill-rule="evenodd" clip-rule="evenodd" d="M33.1343 61.6508C31.6695 61.4476 30.1459 61.2675 28.6181 61.0622C27.9696 61.0224 27.4806 61.5083 27.3988 62.076C27.298 62.7462 27.6821 63.274 28.3348 63.3767C29.8185 63.6008 31.2854 63.76 32.5656 63.9443C33.4617 63.9443 33.9486 63.5568 34.0305 62.9305C34.1333 62.3608 33.7471 61.7325 33.1343 61.6508Z" fill="#076CB4"/>
<path fill-rule="evenodd" clip-rule="evenodd" d="M1.63047 47.8665C0.67349 47.8665 0.146739 48.2101 0.0627941 48.8217C-0.0379402 49.4521 0.350298 50.0805 0.919027 50.1622C2.42375 50.3654 3.94945 50.5455 5.47515 50.7508C6.12573 50.7906 6.6546 50.3046 6.69447 49.6951C6.7973 49.1044 6.36918 48.5368 5.69762 48.4342C4.27475 48.2101 2.84977 48.0509 1.63047 47.8665Z" fill="#076CB4"/>
<path fill-rule="evenodd" clip-rule="evenodd" d="M21.2166 45.9186C20.2008 45.816 19.183 45.6756 18.2071 45.573C17.3719 45.4327 16.8031 45.7762 16.7003 46.4464C16.5597 47.1565 16.9438 47.7241 17.779 47.8665C18.9794 48.0697 20.2386 48.1702 21.6426 48.3546C22.1316 48.3546 22.7003 47.9273 22.8032 47.3408C22.9039 46.7313 22.5198 46.2034 21.8462 46.061C21.6426 46.0003 21.3992 45.9605 21.2145 45.9207L21.2166 45.9186Z" fill="#076CB4"/>
</svg>
