<svg width="71" height="71" viewBox="0 0 71 71" fill="none" xmlns="http://www.w3.org/2000/svg">
<path d="M62.1132 54.4187C60.8258 54.413 59.5383 54.436 58.2528 54.413C55.559 54.3632 53.5271 52.6149 53.2873 50.0335C53.1683 48.7639 53.1664 47.4618 53.3026 46.196C53.3871 45.4108 53.7094 44.5855 54.1373 43.9114C55.2252 42.1995 57.3395 41.4641 59.3292 41.9678C61.2824 42.4618 62.7579 44.1604 62.9094 46.1921C62.99 47.2626 62.9401 48.3426 62.967 49.4169C62.9881 50.2403 63.4524 50.7497 64.1412 50.744C64.8281 50.7382 65.3078 50.2269 65.3135 49.4054C65.3212 48.2622 65.3461 47.1132 65.2541 45.9757C64.9778 42.5691 62.1842 39.7828 58.8246 39.4994C55.2309 39.1968 51.9883 41.4067 51.1691 44.8383C50.9177 45.8877 50.9638 47.0117 50.9024 48.1033C50.7719 50.4031 51.0866 52.5842 52.8211 54.4321C50.1503 54.8573 48.1261 56.1384 46.6813 58.3635C44.7012 55.382 41.923 54.2292 38.4905 54.4092C37.4602 54.4628 36.4222 54.4398 35.388 54.4111C32.4812 54.3307 30.4858 52.3027 30.4628 49.4188C30.4551 48.4575 30.4474 47.4962 30.4685 46.5349C30.528 43.8904 32.6577 41.8165 35.3036 41.8165C37.9475 41.8165 40.0792 43.8865 40.1405 46.5311C40.1636 47.5154 40.131 48.4996 40.1559 49.4839C40.1751 50.2346 40.6797 50.744 41.3397 50.7421C42.0093 50.7382 42.4832 50.2384 42.4948 49.4724C42.5101 48.4652 42.5178 47.4579 42.4909 46.4507C42.4276 44.1259 41.4126 42.2818 39.5784 40.8705C39.3808 40.7192 39.1774 40.5775 38.9337 40.3994C39.8777 39.7292 40.8754 39.3634 41.9767 39.3443C43.4925 39.3175 45.0101 39.3462 46.5259 39.3232C50.1886 39.2677 53.1491 36.8683 53.6998 33.3429C53.9224 31.9105 53.8475 30.4187 53.8034 28.9576C53.7017 25.6869 51.4953 22.9983 48.3083 22.2381C47.8344 22.1251 47.702 21.903 47.5908 21.497C46.7408 18.3891 44.7454 16.4033 41.6256 15.5435C41.3224 15.4592 41.0116 15.3941 40.6202 15.3003C41.5853 14.1858 42.2684 12.9851 42.3816 11.5853C42.4967 10.1759 42.4967 8.75306 42.4832 7.336C42.4564 4.27592 40.3228 1.50116 37.3815 0.641352C37.0131 0.534115 36.639 0.438368 36.2667 0.338791H34.3366C33.1182 0.664331 31.921 1.02434 30.9117 1.83628C29.1466 3.25525 28.1776 5.0687 28.1162 7.33791C28.0913 8.25326 28.1105 9.1686 28.0951 10.0839C28.0625 12.0314 28.6208 13.776 29.9294 15.2351C29.0602 15.5339 28.239 15.8039 27.4255 16.1007C27.1703 16.1945 26.9286 16.3401 26.7002 16.4913C26.1362 16.8667 25.9654 17.4986 26.259 18.0444C26.5487 18.5844 27.2394 18.864 27.7996 18.525C29.2099 17.6729 30.7429 17.6078 32.322 17.6269C34.8489 17.6595 37.3777 17.6078 39.9045 17.6518C42.4698 17.6958 44.8183 19.6625 45.2768 22.0677C44.6015 22.3358 43.8877 22.533 43.2603 22.8815C40.7641 24.266 39.4786 26.4012 39.4326 29.2564C39.4191 30.0568 39.4364 30.8592 39.4191 31.6596C39.3769 33.632 39.9065 35.4072 41.2956 36.9564C41.0653 37.0291 40.908 37.0962 40.743 37.1268C39.2119 37.4121 37.9015 38.1187 36.7272 39.126C36.497 39.3232 36.1286 39.486 35.837 39.4649C31.4067 39.149 27.8073 42.9118 28.1124 47.0462C28.2006 48.2526 28.097 49.4744 28.2102 50.6789C28.3407 52.0787 28.9911 53.2908 30.0023 54.4302C27.3737 54.8764 25.3591 56.1403 24.0007 58.2467C23.2793 57.519 22.6269 56.7454 21.8556 56.1154C20.5624 55.0545 19.0351 54.4896 17.3544 54.4417C15.8386 54.3977 14.321 54.4245 12.8052 54.413C9.70081 54.3881 7.67277 52.3812 7.64591 49.2943C7.63632 48.2871 7.60754 47.276 7.68428 46.2745C7.88574 43.6319 10.027 41.7514 12.6882 41.8165C15.2036 41.8797 17.2604 43.9363 17.3506 46.5119C17.3851 47.4713 17.3525 48.4345 17.364 49.3958C17.3736 50.2078 17.8341 50.7325 18.519 50.7401C19.2021 50.7478 19.7124 50.2135 19.7048 49.4188C19.6933 48.1167 19.7335 46.803 19.5839 45.5142C19.3575 43.5821 18.3387 42.0559 16.7903 40.8801C16.5946 40.7307 16.3951 40.5871 16.1571 40.409C17.1913 39.6756 18.283 39.3405 19.486 39.3251C21.2531 39.3022 23.0337 39.3788 24.7873 39.2064C28.0913 38.8809 30.7774 36.0717 30.9904 32.7626C31.0883 31.2383 31.1362 29.6757 30.9156 28.1725C30.457 25.0282 28.5287 23.0807 25.48 22.196C25.2555 22.1309 24.9734 21.8915 24.9159 21.6808C23.9565 18.1765 21.7098 16.072 18.1276 15.3845C18.0624 15.373 18.0029 15.3328 17.9453 15.3098C17.9377 15.26 17.9127 15.2007 17.93 15.1796C19.3114 13.5825 19.7988 11.7002 19.7144 9.63776C19.6645 8.40645 19.7719 7.13493 19.4995 5.95149C18.8241 3.01205 16.8997 1.20243 13.9526 0.480497C13.8029 0.444113 13.659 0.384749 13.5132 0.334961H11.583C10.0634 0.673906 8.65129 1.22541 7.51736 2.34374C5.98242 3.85846 5.24181 5.68149 5.3128 7.84154C5.33967 8.64008 5.26676 9.44244 5.28211 10.2429C5.31664 12.1234 5.84044 13.8392 7.17008 15.2562C6.35848 15.5186 5.59101 15.6871 4.89453 16.0088C2.25636 17.2343 0.654267 19.2853 0.120876 22.1481C0.10169 22.2553 0.0402921 22.3549 0 22.4564V30.6983C0.3185 31.3034 0.782818 31.6941 1.49656 31.4911C2.21223 31.2881 2.36189 30.7098 2.35613 30.0281C2.33886 27.9217 2.3427 25.8171 2.35037 23.7107C2.3638 20.168 4.87727 17.6537 8.42489 17.6403C11.3202 17.6307 14.2154 17.6173 17.1107 17.6518C19.4918 17.6805 21.6676 19.314 22.4216 21.5602C22.4792 21.7287 22.5041 21.9087 22.554 22.1213C21.1898 22.4334 19.9676 22.9811 18.9584 23.9328C17.3697 25.4303 16.5869 27.2591 16.6445 29.4498C16.6656 30.2732 16.6099 31.0966 16.6176 31.9201C16.633 33.812 17.176 35.5221 18.5421 37.0004C18.1794 37.0789 17.9146 37.1306 17.6518 37.1938C16.2646 37.5347 15.0577 38.2011 13.9756 39.1298C13.7339 39.3366 13.3367 39.4783 13.0182 39.4688C8.48629 39.3213 5.18233 42.6074 5.32623 47.1381C5.34158 47.6398 5.29937 48.1435 5.28594 48.6471C5.22455 51.0829 5.5795 52.1974 7.15281 54.4456C6.82856 54.5222 6.52732 54.5777 6.23185 54.6639C2.8569 55.6481 0.800086 57.8427 0.118958 61.2934C0.0978523 61.4006 0.0402921 61.5021 0 61.6055V69.8475C0.368385 70.1194 0.704153 70.5349 1.11475 70.6326C1.79971 70.7934 2.34078 70.1672 2.34462 69.3381C2.35421 67.1876 2.34462 65.0352 2.34845 62.8847C2.35805 59.2865 4.83697 56.7894 8.43832 56.7665C11.1724 56.7492 13.9065 56.7511 16.6406 56.7665C20.2535 56.7856 22.7382 59.2712 22.7497 62.8617C22.7574 64.9892 22.7497 67.1187 22.7535 69.2462C22.7555 70.1175 23.1968 70.6517 23.9028 70.667C24.6338 70.6824 25.0905 70.1309 25.1001 69.2232C25.1001 69.0623 25.1001 68.9034 25.1001 68.7425C25.1001 66.7969 25.0962 64.8514 25.1001 62.9077C25.1097 59.2674 27.5848 56.7837 31.2341 56.7665C33.9452 56.7531 36.6562 56.7531 39.3673 56.7665C43.0147 56.7837 45.4936 59.2712 45.5013 62.9077C45.5071 65.0122 45.5013 67.1187 45.5032 69.2232C45.5032 70.1309 45.9676 70.6824 46.6986 70.667C47.4046 70.6517 47.8479 70.1175 47.8498 69.2462C47.8555 67.1187 47.8459 64.9892 47.8536 62.8617C47.8651 59.2712 50.3498 56.7856 53.9627 56.7665C56.6968 56.7511 59.4309 56.7511 62.165 56.7665C65.7644 56.7875 68.2433 59.2865 68.2549 62.8847C68.2606 64.9663 68.2683 67.0497 68.2491 69.1313C68.2433 69.8092 68.3796 70.3817 69.0914 70.6077C69.8205 70.8413 70.2522 70.4009 70.6052 69.8455V61.6036C70.5649 61.4964 70.5112 61.393 70.4882 61.2838C69.6229 57.048 66.436 54.4321 62.1113 54.4149L62.1132 54.4187ZM40.0293 11.434C39.5438 13.8277 37.3086 15.4898 34.9697 15.2792C32.3968 15.0475 30.5126 13.0579 30.4666 10.5052C30.4474 9.45393 30.4436 8.40071 30.4704 7.34749C30.5376 4.76231 32.6923 2.68843 35.2921 2.68268C37.8957 2.67694 40.0561 4.74316 40.1367 7.32642C40.154 7.89708 40.1386 8.46965 40.1386 9.04221H40.1904C40.1425 9.84266 40.1847 10.6584 40.0273 11.4321L40.0293 11.434ZM41.7848 29.1434C41.8271 26.5027 43.9568 24.3943 46.5777 24.3771C49.2331 24.3618 51.3609 26.3878 51.4607 29.0419C51.4818 29.5896 51.4646 30.1392 51.4646 30.6887L51.5413 30.6945C51.4665 31.5792 51.4972 32.4907 51.2957 33.3448C50.7527 35.6504 48.4772 37.213 46.1997 36.9449C43.6613 36.6481 41.8328 34.7025 41.7868 32.2303C41.7676 31.202 41.7676 30.1717 41.7868 29.1415L41.7848 29.1434ZM17.2374 11.3018C16.9112 13.6687 14.7296 15.373 12.3716 15.2888C9.91378 15.2026 7.90877 13.3413 7.69388 10.9074C7.63823 10.2716 7.6862 9.62819 7.6862 8.9886H7.67277C7.67277 8.39305 7.6344 7.79558 7.67853 7.20578C7.87423 4.65125 9.91954 2.71715 12.4292 2.68268C14.9733 2.64821 17.1395 4.55167 17.3218 7.12727C17.4196 8.51177 17.4235 9.92883 17.2354 11.2999L17.2374 11.3018ZM19.0045 28.9557C19.1292 26.4318 21.1898 24.4288 23.6937 24.379C26.2685 24.3292 28.4731 26.2116 28.6439 28.7508C28.7398 30.1813 28.759 31.6481 28.5479 33.0594C28.193 35.4321 25.9405 37.121 23.6246 36.9679C21.0613 36.7974 19.1311 34.8901 19.0064 32.3854C18.9776 31.8147 19.0025 31.2422 19.0025 30.6696C19.0025 30.097 18.9795 29.5245 19.0064 28.9538L19.0045 28.9557Z" fill="#076CB4"/>
<path d="M70.2514 21.1484C69.2134 18.0462 67.0971 16.1293 63.8776 15.438C63.749 15.4093 63.6224 15.3672 63.4209 15.3116C64.2939 14.2718 65.0345 13.1784 65.1151 11.8801C65.2341 9.97085 65.3876 8.02144 65.1247 6.1448C64.7084 3.17855 62.3254 1.01849 59.3361 0.457411C59.2267 0.436346 59.125 0.378898 59.0214 0.338684H57.0912C56.9454 0.386558 56.8015 0.449751 56.6519 0.482305C53.6894 1.11424 51.3736 3.43706 51.0321 6.41672C50.8383 8.10378 50.94 9.83489 51.0205 11.5411C51.08 12.7762 51.648 13.8659 52.4097 14.8425C52.5152 14.9784 52.6111 15.1201 52.7032 15.2465C51.8628 15.5242 51.0474 15.7502 50.2684 16.0642C49.5566 16.3515 49.3053 17.0064 49.5739 17.6268C49.8387 18.2377 50.4737 18.4043 51.199 18.2147C52.1641 17.9619 53.1522 17.6862 54.1384 17.6594C56.8226 17.5847 59.5107 17.6249 62.1968 17.6383C65.731 17.6536 68.2406 20.1756 68.256 23.7163C68.2637 25.8209 68.2694 27.9254 68.2502 30.028C68.2445 30.7097 68.3941 31.2861 69.1098 31.4891C69.8255 31.6921 70.2879 31.2995 70.6064 30.6963V22.4544C70.4893 22.0178 70.3972 21.5735 70.2533 21.1465L70.2514 21.1484ZM62.7916 11.5852C62.2697 13.8754 60.0844 15.4553 57.8146 15.281C55.3683 15.0933 53.4304 13.255 53.2769 10.8249C53.1887 9.4385 53.1771 8.02144 53.369 6.65226C53.7009 4.26049 55.8959 2.58491 58.3173 2.68641C60.7233 2.7879 62.7033 4.66071 62.9106 7.07354C62.9662 7.70931 62.9182 8.35273 62.9182 8.99232C62.9509 8.99232 62.9854 8.99615 63.018 8.99806C62.9489 9.8617 62.9816 10.7483 62.7916 11.5852Z" fill="#076CB4"/>
</svg>
