<svg width="692" height="82" viewBox="0 0 692 82" fill="none" xmlns="http://www.w3.org/2000/svg">
<g filter="url(#filter0_b_991_5611)">
<rect x="134" y="44" width="30" height="30" rx="10" fill="#2A2A29" fill-opacity="0.05"/>
<rect x="134.7" y="44.7" width="28.6" height="28.6" rx="9.3" stroke="white" stroke-opacity="0.4" stroke-width="1.4"/>
</g>
<path d="M153 58.2693L149 62.577L145 58.2693" stroke="white" stroke-width="1.4" stroke-linecap="square"/>
<g filter="url(#filter1_b_991_5611)">
<rect x="348" y="44" width="30" height="30" rx="10" fill="#2A2A29" fill-opacity="0.05"/>
<rect x="348.7" y="44.7" width="28.6" height="28.6" rx="9.3" stroke="white" stroke-opacity="0.4" stroke-width="1.4"/>
</g>
<path d="M367 58.2693L363 62.577L359 58.2693" stroke="white" stroke-width="1.4" stroke-linecap="square"/>
<g filter="url(#filter2_b_991_5611)">
<rect x="532" y="44" width="30" height="30" rx="10" fill="#2A2A29" fill-opacity="0.05"/>
<rect x="532.7" y="44.7" width="28.6" height="28.6" rx="9.3" stroke="white" stroke-opacity="0.4" stroke-width="1.4"/>
</g>
<path d="M547 55V63M543 59H551" stroke="white" stroke-width="1.4"/>
<g filter="url(#filter3_b_991_5611)">
<rect x="492" y="44" width="30" height="30" rx="10" fill="#2A2A29" fill-opacity="0.05"/>
<rect x="492.7" y="44.7" width="28.6" height="28.6" rx="9.3" stroke="white" stroke-opacity="0.4" stroke-width="1.4"/>
</g>
<path d="M503 59H511" stroke="white" stroke-width="1.4"/>
<path d="M10.58 65V63.42H3.68C7.5 60.38 10.46 58.14 10.46 54.92C10.46 52.24 8.16 50.8 5.36 50.8C3.88 50.8 2.24 51.24 0.88 52.14L1.7 53.64C2.82 52.88 4.12 52.48 5.28 52.48C7.1 52.48 8.5 53.26 8.5 55C8.5 57.86 4.84 60.4 0.58 63.68L0.58 65H10.58ZM18.8908 65.2C22.6508 65.2 24.8508 62.08 24.8508 58C24.8508 53.82 22.5908 50.8 18.9108 50.8C15.1308 50.8 12.9308 53.94 12.9308 57.98C12.9308 62.14 15.1908 65.2 18.8908 65.2ZM18.9108 63.64C16.4108 63.64 14.8508 61.22 14.8508 57.98C14.8508 54.92 16.2708 52.38 18.8908 52.38C21.3708 52.38 22.9308 54.76 22.9308 58.02C22.9308 61.06 21.5108 63.64 18.9108 63.64ZM42.9633 54.14H41.4033L34.7033 61.92V54.14H32.7833V65H34.2833L41.0433 57.12V65H42.9633V54.14ZM56.1413 53.92C53.0613 53.92 50.7613 55.9 50.3813 58.76H47.7013V54.12H45.8013V65H47.7013V60.36H50.4013C50.7613 63.2 53.0413 65.2 56.1413 65.2C59.5213 65.2 61.9613 62.8 61.9613 59.54C61.9613 56.28 59.5213 53.92 56.1413 53.92ZM56.1613 63.46C53.9013 63.46 52.2613 61.88 52.2613 59.54C52.2613 57.22 53.9013 55.66 56.1413 55.66C58.4013 55.66 60.0213 57.22 60.0213 59.56C60.0213 61.88 58.4013 63.46 56.1613 63.46ZM72.9303 54.14H64.4103L64.2703 60.96C64.2103 63.04 63.7703 63.56 62.7103 63.58V65C64.9903 65.36 66.1103 64.16 66.1703 61.02L66.2703 55.64H71.0103V65L72.9303 65V54.14ZM79.8034 54.14C76.9834 54.14 75.1234 55.46 75.1234 57.68C75.1234 59.52 76.3234 60.76 78.2634 61.18L74.7434 65H76.9634L80.3834 61.32H82.8034V65H84.7034V54.14L79.8034 54.14ZM79.7834 59.56C78.3234 59.56 77.0434 59.2 77.0434 57.78C77.0434 56.4 78.2034 55.86 79.7634 55.86L82.8034 55.86V59.56H79.7834Z" fill="white"/>
<path d="M214.48 51.48L214.7 53.06L217.52 52.64V65H219.44V51H217.8L214.48 51.48ZM227.524 65.2C230.504 65.2 232.704 63.3 232.704 60.66C232.704 58.12 230.744 56.38 228.064 56.38C226.844 56.38 225.764 56.56 224.804 56.98L225.044 52.7H232.064V51H223.324L222.944 57.66L223.484 58.82C224.524 58.4 226.324 58 227.364 58C229.424 58 230.784 58.98 230.784 60.66C230.784 62.38 229.364 63.52 227.324 63.52C225.764 63.52 224.044 62.98 222.944 61.96L222.244 63.42C223.604 64.72 225.384 65.2 227.524 65.2ZM244.826 53.92C243.506 53.92 242.106 54.18 240.886 54.62L241.146 56.36C242.126 55.94 243.366 55.66 244.626 55.66C246.646 55.66 247.726 56.52 247.726 58.24V58.58C246.666 58.46 245.426 58.38 244.086 58.38C241.166 58.38 239.926 59.86 239.926 61.8C239.926 63.8 241.366 65.2 243.686 65.2C245.766 65.2 247.126 64.16 247.726 63.16V65H249.646V58.34C249.646 55.56 248.066 53.92 244.826 53.92ZM244.306 63.46C242.686 63.46 241.746 62.88 241.746 61.7C241.746 60.58 242.526 59.86 244.666 59.86C245.866 59.86 246.786 59.94 247.726 60.08V60.22C247.726 61.86 246.606 63.46 244.306 63.46ZM259.242 59.38C260.522 59.02 261.302 58.12 261.302 56.86C261.302 55.16 259.882 54.12 257.522 54.12H252.262V65H257.722C260.282 65 261.822 63.9 261.822 62.1C261.822 60.7 260.862 59.68 259.242 59.38ZM257.342 55.86C258.802 55.86 259.422 56.4 259.422 57.24C259.422 58.18 258.702 58.68 257.422 58.68H254.162V55.86H257.342ZM254.162 63.26V60.46H257.782C259.082 60.46 259.862 60.92 259.862 61.84C259.862 62.8 259.122 63.26 257.702 63.26L254.162 63.26ZM264.05 65H265.95V55.64H271.81V54.14H264.05V65Z" fill="white"/>
<path d="M438.58 65V63.42H431.68C435.5 60.38 438.46 58.14 438.46 54.92C438.46 52.24 436.16 50.8 433.36 50.8C431.88 50.8 430.24 51.24 428.88 52.14L429.7 53.64C430.82 52.88 432.12 52.48 433.28 52.48C435.1 52.48 436.5 53.26 436.5 55C436.5 57.86 432.84 60.4 428.58 63.68V65H438.58Z" fill="white"/>
<path d="M6.39166 25.632C7.57966 25.428 8.19166 24.756 8.19166 23.712C8.19166 22.188 6.59566 21.48 4.80766 21.48C3.72766 21.48 2.59966 21.732 1.67566 22.224L2.15566 23.124C2.88766 22.716 3.84766 22.488 4.71166 22.488C5.88766 22.488 6.90766 22.92 6.90766 23.82C6.90766 24.78 6.13966 25.08 4.74766 25.08H3.00766V26.148H4.80766C6.19966 26.148 7.00366 26.76 7.00366 27.732C7.00366 28.74 5.97166 29.112 4.73566 29.112C3.87166 29.112 2.87566 28.872 2.15566 28.476L1.67566 29.352C2.59966 29.88 3.72766 30.132 4.79566 30.132C6.64366 30.132 8.28766 29.352 8.28766 27.804C8.28766 26.748 7.61566 25.872 6.39166 25.632ZM11.9242 23.352C11.1322 23.352 10.2922 23.508 9.56022 23.772L9.71622 24.816C10.3042 24.564 11.0482 24.396 11.8042 24.396C13.0162 24.396 13.6642 24.912 13.6642 25.944V26.148C13.0282 26.076 12.2842 26.028 11.4802 26.028C9.72822 26.028 8.98422 26.916 8.98422 28.08C8.98422 29.28 9.84822 30.12 11.2402 30.12C12.4882 30.12 13.3042 29.496 13.6642 28.896V30H14.8162L14.8162 26.004C14.8162 24.336 13.8682 23.352 11.9242 23.352ZM11.6122 29.076C10.6402 29.076 10.0762 28.728 10.0762 28.02C10.0762 27.348 10.5442 26.916 11.8282 26.916C12.5482 26.916 13.1002 26.964 13.6642 27.048V27.132C13.6642 28.116 12.9922 29.076 11.6122 29.076ZM22.4221 27.18C22.4581 26.88 22.4701 26.7 22.4701 26.496C22.4701 24.66 21.2101 23.364 19.3981 23.364C17.3701 23.364 16.0141 24.78 16.0141 26.736C16.0141 28.692 17.4661 30.12 19.4941 30.12C20.6101 30.12 21.4861 29.676 22.1101 29.004L21.3661 28.332C20.8981 28.86 20.3341 29.076 19.5541 29.076C18.2701 29.076 17.3941 28.392 17.2141 27.18H22.4221ZM19.3861 24.396C20.4541 24.396 21.1981 25.02 21.3541 26.208L17.2261 26.208C17.4061 25.08 18.2221 24.396 19.3861 24.396ZM25.9824 30.132C27.4464 30.132 28.6344 29.388 28.6344 28.176C28.6344 27.444 28.2144 26.964 27.5904 26.688C28.1664 26.436 28.5384 25.98 28.5384 25.26C28.5384 24.048 27.4464 23.352 25.8864 23.352C24.7464 23.352 23.9424 23.688 23.2824 24.144L23.6544 24.96C24.2904 24.576 24.9504 24.324 25.7544 24.324C26.7744 24.324 27.3624 24.72 27.3624 25.344C27.3624 25.968 26.8944 26.292 25.9584 26.292H24.6504V27.084H25.9584C26.8944 27.084 27.4584 27.468 27.4584 28.044C27.4584 28.608 26.8704 29.064 25.8144 29.064C24.9264 29.064 24.0984 28.728 23.5224 28.332L23.1504 29.256C23.7024 29.688 24.6624 30.132 25.9824 30.132ZM35.7336 23.484H30.2016L30.0816 27.24C30.0336 28.464 29.7696 28.872 29.4096 29.088H28.8696V31.212H29.9856V30H35.4816V31.212H36.5856V29.088H35.7336V23.484ZM30.7296 29.088C31.0056 28.74 31.1856 28.176 31.2216 27.084L31.3176 24.384H34.5816V29.088H30.7296Z" fill="white"/>
<path d="M221.648 25.68C222.512 25.404 223.052 24.648 223.052 23.712C223.052 22.392 221.984 21.6 220.256 21.6H216.212V30H220.4C222.272 30 223.424 29.148 223.424 27.78C223.424 26.724 222.728 25.92 221.648 25.68ZM220.016 22.668C221.252 22.668 221.876 23.076 221.876 23.94C221.876 24.768 221.3 25.224 220.064 25.224H217.4V22.668H220.016ZM217.4 28.932V26.292H220.196C221.54 26.292 222.236 26.712 222.236 27.624C222.236 28.464 221.6 28.932 220.22 28.932H217.4ZM225.967 25.452V23.484H224.827V30H227.515C229.315 30 230.419 29.148 230.419 27.744C230.419 26.304 229.303 25.452 227.491 25.452H225.967ZM231.823 30H232.963V23.484H231.823V30ZM225.967 29.088V26.376H227.467C228.607 26.376 229.267 26.88 229.267 27.744C229.267 28.584 228.595 29.088 227.479 29.088H225.967ZM240.69 27.18C240.726 26.88 240.738 26.7 240.738 26.496C240.738 24.66 239.478 23.364 237.666 23.364C235.638 23.364 234.282 24.78 234.282 26.736C234.282 28.692 235.734 30.12 237.762 30.12C238.878 30.12 239.754 29.676 240.378 29.004L239.634 28.332C239.166 28.86 238.602 29.076 237.822 29.076C236.538 29.076 235.662 28.392 235.482 27.18L240.69 27.18ZM237.654 24.396C238.722 24.396 239.466 25.02 239.622 26.208H235.494C235.674 25.08 236.49 24.396 237.654 24.396ZM244.25 30.132C245.714 30.132 246.902 29.388 246.902 28.176C246.902 27.444 246.482 26.964 245.858 26.688C246.434 26.436 246.806 25.98 246.806 25.26C246.806 24.048 245.714 23.352 244.154 23.352C243.014 23.352 242.21 23.688 241.55 24.144L241.922 24.96C242.558 24.576 243.218 24.324 244.022 24.324C245.042 24.324 245.63 24.72 245.63 25.344C245.63 25.968 245.162 26.292 244.226 26.292H242.918V27.084H244.226C245.162 27.084 245.726 27.468 245.726 28.044C245.726 28.608 245.138 29.064 244.082 29.064C243.194 29.064 242.366 28.728 241.79 28.332L241.418 29.256C241.97 29.688 242.93 30.132 244.25 30.132ZM254.001 23.484H248.469L248.349 27.24C248.301 28.464 248.037 28.872 247.677 29.088H247.137V31.212H248.253V30L253.749 30V31.212H254.853V29.088H254.001V23.484ZM248.997 29.088C249.273 28.74 249.453 28.176 249.489 27.084L249.585 24.384H252.849V29.088L248.997 29.088Z" fill="white"/>
<path d="M433.519 30H434.695V22.656H439.495V21.6H433.519V30ZM442.289 30.12C444.317 30.12 445.781 28.68 445.781 26.724C445.781 24.768 444.317 23.352 442.289 23.352C440.273 23.352 438.809 24.768 438.809 26.736C438.809 28.692 440.261 30.12 442.289 30.12ZM442.301 29.076C440.945 29.076 439.961 28.128 439.961 26.724C439.961 25.332 440.945 24.396 442.289 24.396C443.645 24.396 444.617 25.332 444.617 26.736C444.617 28.128 443.645 29.076 442.301 29.076ZM450.063 30.12C450.999 30.12 451.731 29.892 452.547 29.316L452.091 28.464C451.491 28.86 450.879 29.088 450.171 29.088C448.791 29.088 447.807 28.188 447.807 26.736C447.807 25.284 448.791 24.384 450.159 24.384C450.879 24.384 451.455 24.612 452.067 25.044L452.547 24.156C451.779 23.604 450.987 23.352 450.075 23.352C448.179 23.352 446.643 24.72 446.643 26.736C446.643 28.752 448.131 30.12 450.063 30.12ZM452.81 23.484V24.516H455.09V30H456.23V24.516H458.51V23.484H452.81ZM465.815 23.484H464.879L460.859 28.152V23.484H459.707V30H460.607L464.663 25.272V30H465.815V23.484ZM473.89 31.536C472.462 30.276 471.73 28.584 471.73 26.64C471.73 24.72 472.462 23.016 473.89 21.744L473.122 21.132C471.478 22.476 470.578 24.384 470.578 26.64C470.578 28.908 471.478 30.816 473.122 32.148L473.89 31.536ZM479.113 26.628C479.881 26.412 480.349 25.872 480.349 25.116C480.349 24.096 479.497 23.472 478.081 23.472H474.925V30H478.201C479.737 30 480.661 29.34 480.661 28.26C480.661 27.42 480.085 26.808 479.113 26.628ZM477.973 24.516C478.849 24.516 479.221 24.84 479.221 25.344C479.221 25.908 478.789 26.208 478.021 26.208H476.065V24.516H477.973ZM476.065 28.956V27.276H478.237C479.017 27.276 479.485 27.552 479.485 28.104C479.485 28.68 479.041 28.956 478.189 28.956H476.065ZM484.757 23.484V24.516H487.037V30H488.177V24.516H490.457V23.484H484.757ZM491.203 30H492.619V28.74H491.203V30ZM498.73 26.58C498.454 26.748 497.734 27.108 496.822 27.108C495.694 27.108 495.01 26.328 495.01 25.092V23.484H493.858V25.296C493.858 27.036 494.806 28.092 496.366 28.092C497.458 28.092 498.31 27.696 498.73 27.504V30H499.882V23.484H498.73V26.58ZM501.34 30H502.756V28.74H501.34V30ZM513.439 23.484L507.907 23.484L507.787 27.24C507.739 28.464 507.475 28.872 507.115 29.088H506.575V31.212H507.691V30L513.187 30V31.212H514.291V29.088H513.439V23.484ZM508.435 29.088C508.711 28.74 508.891 28.176 508.927 27.084L509.023 24.384H512.287V29.088L508.435 29.088ZM521.146 27.18C521.182 26.88 521.194 26.7 521.194 26.496C521.194 24.66 519.934 23.364 518.122 23.364C516.094 23.364 514.738 24.78 514.738 26.736C514.738 28.692 516.19 30.12 518.218 30.12C519.334 30.12 520.21 29.676 520.834 29.004L520.09 28.332C519.622 28.86 519.058 29.076 518.278 29.076C516.994 29.076 516.118 28.392 515.938 27.18H521.146ZM518.11 24.396C519.178 24.396 519.922 25.02 520.078 26.208H515.95C516.13 25.08 516.946 24.396 518.11 24.396ZM521.515 23.484V24.516H523.795V30H524.935V24.516H527.215V23.484H521.515ZM534.519 23.484H533.583L529.563 28.152V23.484H528.411V30H529.311L533.367 25.272V30H534.519V23.484ZM535.55 21.744C536.978 23.016 537.71 24.708 537.71 26.64C537.71 28.56 536.978 30.276 535.55 31.536L536.33 32.148C537.962 30.816 538.874 28.896 538.874 26.64C538.874 24.384 537.962 22.476 536.33 21.132L535.55 21.744Z" fill="white"/>
<g filter="url(#filter4_b_991_5611)">
<line x1="184.5" y1="1.17906e-08" x2="184.5" y2="82" stroke="white" stroke-opacity="0.4"/>
</g>
<g filter="url(#filter5_b_991_5611)">
<line x1="398.5" y1="1.17906e-08" x2="398.5" y2="82" stroke="white" stroke-opacity="0.4"/>
</g>
<g filter="url(#filter6_b_991_5611)">
<line x1="596.5" y1="1.17906e-08" x2="596.5" y2="82" stroke="white" stroke-opacity="0.4"/>
</g>
<path d="M672.231 59.077L691 40.3078M691 40.3078L672.231 21.5386M691 40.3078H630" stroke="white" stroke-width="1.4"/>
<defs>
<filter id="filter0_b_991_5611" x="34" y="-56" width="230" height="230" filterUnits="userSpaceOnUse" color-interpolation-filters="sRGB">
<feFlood flood-opacity="0" result="BackgroundImageFix"/>
<feGaussianBlur in="BackgroundImageFix" stdDeviation="50"/>
<feComposite in2="SourceAlpha" operator="in" result="effect1_backgroundBlur_991_5611"/>
<feBlend mode="normal" in="SourceGraphic" in2="effect1_backgroundBlur_991_5611" result="shape"/>
</filter>
<filter id="filter1_b_991_5611" x="248" y="-56" width="230" height="230" filterUnits="userSpaceOnUse" color-interpolation-filters="sRGB">
<feFlood flood-opacity="0" result="BackgroundImageFix"/>
<feGaussianBlur in="BackgroundImageFix" stdDeviation="50"/>
<feComposite in2="SourceAlpha" operator="in" result="effect1_backgroundBlur_991_5611"/>
<feBlend mode="normal" in="SourceGraphic" in2="effect1_backgroundBlur_991_5611" result="shape"/>
</filter>
<filter id="filter2_b_991_5611" x="432" y="-56" width="230" height="230" filterUnits="userSpaceOnUse" color-interpolation-filters="sRGB">
<feFlood flood-opacity="0" result="BackgroundImageFix"/>
<feGaussianBlur in="BackgroundImageFix" stdDeviation="50"/>
<feComposite in2="SourceAlpha" operator="in" result="effect1_backgroundBlur_991_5611"/>
<feBlend mode="normal" in="SourceGraphic" in2="effect1_backgroundBlur_991_5611" result="shape"/>
</filter>
<filter id="filter3_b_991_5611" x="392" y="-56" width="230" height="230" filterUnits="userSpaceOnUse" color-interpolation-filters="sRGB">
<feFlood flood-opacity="0" result="BackgroundImageFix"/>
<feGaussianBlur in="BackgroundImageFix" stdDeviation="50"/>
<feComposite in2="SourceAlpha" operator="in" result="effect1_backgroundBlur_991_5611"/>
<feBlend mode="normal" in="SourceGraphic" in2="effect1_backgroundBlur_991_5611" result="shape"/>
</filter>
<filter id="filter4_b_991_5611" x="176" y="-8" width="17" height="98" filterUnits="userSpaceOnUse" color-interpolation-filters="sRGB">
<feFlood flood-opacity="0" result="BackgroundImageFix"/>
<feGaussianBlur in="BackgroundImageFix" stdDeviation="4"/>
<feComposite in2="SourceAlpha" operator="in" result="effect1_backgroundBlur_991_5611"/>
<feBlend mode="normal" in="SourceGraphic" in2="effect1_backgroundBlur_991_5611" result="shape"/>
</filter>
<filter id="filter5_b_991_5611" x="390" y="-8" width="17" height="98" filterUnits="userSpaceOnUse" color-interpolation-filters="sRGB">
<feFlood flood-opacity="0" result="BackgroundImageFix"/>
<feGaussianBlur in="BackgroundImageFix" stdDeviation="4"/>
<feComposite in2="SourceAlpha" operator="in" result="effect1_backgroundBlur_991_5611"/>
<feBlend mode="normal" in="SourceGraphic" in2="effect1_backgroundBlur_991_5611" result="shape"/>
</filter>
<filter id="filter6_b_991_5611" x="588" y="-8" width="17" height="98" filterUnits="userSpaceOnUse" color-interpolation-filters="sRGB">
<feFlood flood-opacity="0" result="BackgroundImageFix"/>
<feGaussianBlur in="BackgroundImageFix" stdDeviation="4"/>
<feComposite in2="SourceAlpha" operator="in" result="effect1_backgroundBlur_991_5611"/>
<feBlend mode="normal" in="SourceGraphic" in2="effect1_backgroundBlur_991_5611" result="shape"/>
</filter>
</defs>
</svg>
