<svg width="268" height="207" viewBox="0 0 268 207" fill="none" xmlns="http://www.w3.org/2000/svg">
<mask id="mask0_1358_6904" style="mask-type:alpha" maskUnits="userSpaceOnUse" x="-576" y="0" width="1420" height="218">
<rect x="-576" y="0.848297" width="1420" height="216.683" rx="10" fill="white"/>
</mask>
<g mask="url(#mask0_1358_6904)">
<g style="mix-blend-mode:multiply" opacity="0.7">
<path d="M-896.599 -32.7158L-889.149 -29.5093L-878.175 -27.7774C-878.175 -27.7774 -868.35 -27.6352 -861.775 -25.0321C-855.201 -22.4291 -853.215 -20.764 -846.566 -18.8972C-839.916 -17.0305 -824.011 -13.1059 -824.011 -13.1059C-824.011 -13.1059 -808.941 -6.98363 -799.888 -6.1679C-790.835 -5.35217 -788.914 -1.68226 -780.069 1.16911C-771.224 4.02047 -761.58 5.93843 -757.097 6.99806C-752.66 8.0535 -737.38 15.3312 -737.38 15.3312L-726.785 24.8968L-709.837 42.9027C-709.837 42.9027 -685.426 49.7792 -677.558 51.1876C-669.686 52.5526 -660.429 51.376 -650.465 54.2844C-640.501 57.1929 -628.395 61.6056 -618.252 63.2189C-608.155 64.828 -597.016 59.45 -592.717 61.8481C-588.417 64.2462 -586.986 58.9551 -577.008 61.7336C-572.301 60.147 -569.952 62.3694 -559.193 57.9624C-548.48 53.5512 -528.183 56.2106 -528.183 56.2106L-517.812 55.1343C-507.44 54.0581 -500.699 52.7423 -493.934 53.483C-487.169 54.2237 -483.869 55.3953 -473.269 52.5475C-462.716 49.6955 -459.057 47.3589 -447.591 47.0369C-436.126 46.715 -433.233 40.419 -418.781 44.3438C-404.33 48.2686 -408.348 42.6612 -390.507 46.8914C-372.666 51.1215 -343.189 39.6153 -335.242 40.244C-327.294 40.8727 -313.659 27.5893 -302.174 26.6135C-290.642 25.6419 -282.752 15.3814 -273.561 14.8545C-264.37 14.3275 -254.549 9.00561 -244.178 7.9294C-233.806 6.8532 -222.343 17.5461 -214.47 18.9112C-206.597 20.2762 -214.701 23.9171 -195.888 29.6336C-177.074 35.3501 -168.528 42.5018 -161.974 45.7588C-155.466 49.0115 -151.421 54.359 -142.638 57.8167C-133.854 61.2744 -132.818 66.2634 -125.994 66.8783C-119.169 67.4932 -115.053 73.0656 -101.709 76.3661C-88.365 79.6665 -93.8307 82.7146 -79.8043 90.7973C-65.7778 98.8799 -65.7114 98.2303 -56.9283 101.688C-48.1452 105.146 -50.3076 106.131 -37.0208 108.159C-12.2023 111.051 -12.1357 110.401 7.06508 112.787C26.2195 115.168 17.3709 106.853 35.9558 103.807C42.583 97.1914 46.0615 92.041 62.5062 89.7636C86.6711 88.0507 83.2917 82.1513 93.8579 79.1693C104.424 76.1874 119.925 69.8474 126.779 69.7218C133.633 69.5963 144.383 65.2759 150.275 63.0967C156.209 60.9651 165.639 58.0994 172.688 56.0681C179.736 54.0368 186.224 46.4913 191.004 44.649C195.738 42.8026 207.566 55.8887 219.169 54.2241C230.767 52.6028 242.748 63.7358 247.369 63.4527C251.939 63.2088 254.501 66.106 258.206 63.7736C261.866 61.437 265.54 63.9972 263.26 64.7535C276.248 60.5473 279.703 60.203 285.708 57.3783C291.713 54.5537 303.79 48.2548 303.79 48.2548C303.79 48.2548 306.676 42.4828 313.958 49.1709C321.286 55.8632 335.004 44.5106 335.004 44.5106L360.14 49.7915L381.109 56.8824C381.109 56.8824 397.994 64.9604 403.25 69.4554C408.507 73.9504 407.334 68.4683 416.113 71.9694C424.896 75.4271 426.945 66.3887 430.383 66.2177C433.82 66.0466 444.431 62.6316 444.431 62.6316C444.431 62.6316 449.813 58.5706 455.256 61.2466C460.698 63.9225 458.622 63.6043 461.945 64.5594C465.268 65.5144 474.117 68.3225 477.506 68.6279C480.896 68.9332 488.901 68.9989 488.901 68.9989C488.901 68.9989 496.476 67.321 503.3 67.9359C510.125 68.5509 516.845 63.7799 524.239 69.8226C531.633 75.8652 533.419 80.3971 539.974 83.6541C546.482 86.9068 547.572 87.7044 556.421 90.5125C565.271 93.3205 559.607 92.8102 567.408 94.8681C575.21 96.9261 564.726 98.6478 594.094 101.95C623.463 105.251 633.763 104.868 639.294 106.678C644.821 108.531 636.042 105.03 644.821 108.531C653.604 111.989 671.37 116.955 676.967 118.115C682.565 119.275 687.552 120.905 687.552 120.905C687.552 120.905 695.03 120.18 701.469 124.563C707.908 128.946 700.31 124.895 707.862 128.942C715.46 132.992 718.783 133.947 722.035 135.595C725.286 137.243 730.265 141.713 730.265 141.713L708.933 350.301L-920.752 203.462L-896.59 -32.8024L-896.599 -32.7158Z" fill="#E4F0F7"/>
<path d="M-612.453 58.6728L-604.711 61.1964L-593.61 61.9361C-593.61 61.9361 -583.816 61.1964 -577.006 63.1979C-570.197 65.1993 -568.051 66.6787 -561.242 67.9405C-554.432 69.2023 -538.201 71.6824 -538.201 71.6824C-538.201 71.6824 -522.577 76.4251 -513.482 76.4251C-504.387 76.4251 -502.102 79.9059 -493.007 81.9509C-483.912 83.9959 -474.117 85.0402 -469.546 85.6928C-465.022 86.3455 -449.071 92.2194 -449.071 92.2194L-437.551 100.791L-418.848 117.194C-418.848 117.194 -393.849 121.85 -385.873 122.546C-377.898 123.199 -368.803 121.197 -358.589 123.199C-348.374 125.2 -335.875 128.507 -325.614 129.203C-315.4 129.9 -304.859 123.547 -300.335 125.549C-295.811 127.55 -294.924 122.155 -284.71 124.026C-280.186 122.024 -277.621 124.026 -267.36 118.674C-257.146 113.322 -236.67 114.149 -236.67 114.149L-226.456 112.147C-216.242 110.146 -209.665 108.231 -202.856 108.362C-196.046 108.492 -192.642 109.363 -182.381 105.577C-172.166 101.792 -168.762 99.1376 -157.381 97.7888C-146.001 96.44 -143.762 89.9134 -128.977 92.524C-114.192 95.1346 -118.763 89.9134 -100.573 92.524C-82.3834 95.1346 -54.2125 81.0372 -46.237 80.9502C-38.2614 80.8632 -26.0416 66.4177 -14.7079 64.4162C-3.32764 62.4147 3.48193 51.4935 12.5768 50.1447C21.6717 48.7959 30.9065 42.6174 41.1208 40.6159C51.3351 38.6144 63.8348 48.2302 71.8103 48.8829C79.7858 49.5356 72.0901 53.8866 91.3993 57.8896C110.708 61.8926 119.943 68.2451 126.799 70.8992C133.609 73.5534 138.18 78.5136 147.275 81.1677C156.37 83.8219 157.909 88.6951 164.765 88.6951C171.621 88.6951 176.285 93.8728 189.904 95.9613C203.523 98.0499 198.393 101.574 213.178 108.362C227.963 115.15 227.963 114.497 237.058 117.151C246.153 119.805 244.1 120.98 257.533 121.807C282.532 122.459 282.532 121.807 301.888 122.459C321.197 123.112 311.543 115.628 329.733 110.929C335.656 103.75 338.594 98.3109 354.732 94.569C378.612 90.6966 374.647 85.1272 384.862 81.2113C395.076 77.2953 409.861 69.5939 416.67 68.8542C423.48 68.1146 433.741 62.8498 439.384 60.1521C445.075 57.498 454.169 53.7996 460.979 51.1454C467.789 48.4913 473.479 40.3983 478.049 38.1358C482.574 35.8732 495.679 47.8386 507.06 45.141C518.44 42.4868 531.499 52.4943 536.07 51.7981C540.594 51.1454 543.439 53.7996 546.891 51.1454C550.296 48.4913 554.213 50.7103 552.021 51.6676C564.521 46.3158 567.926 45.6631 573.616 42.3128C579.306 38.9625 590.686 31.6092 590.686 31.6092C590.686 31.6092 592.972 25.6047 600.901 31.6092C608.876 37.6137 621.376 25.0826 621.376 25.0826L646.935 28.0848L668.529 33.2626C668.529 33.2626 686.159 39.7892 691.85 43.7921C697.54 47.7951 695.814 42.4433 704.909 45.141C714.004 47.7951 715.123 38.6144 718.528 38.1358C721.933 37.6572 732.147 33.3061 732.147 33.3061C732.147 33.3061 737.091 28.781 742.781 30.9565C748.471 33.1321 746.372 33.0015 749.777 33.6542C753.182 34.3069 762.277 36.3083 765.682 36.3083C769.086 36.3083 777.062 35.6557 777.062 35.6557C777.062 35.6557 784.431 33.3061 791.287 33.3061C798.143 33.3061 804.347 27.9543 812.322 33.3061C820.298 38.6579 822.536 43.0089 829.393 45.6631C836.202 48.3172 837.368 49.0134 846.463 51.0149C855.558 53.0164 849.868 53.0164 857.843 54.3652C865.819 55.714 855.558 58.3682 885.128 59.0208C914.698 59.6735 924.912 58.3682 930.603 59.6735C936.293 61.0223 927.198 58.3247 936.293 61.0223C945.388 63.6765 963.578 67.0268 969.268 67.6795C974.958 68.3321 980.088 69.5069 980.088 69.5069C980.088 69.5069 987.457 68.1146 994.313 71.9C1001.17 75.6854 993.194 72.3351 1001.12 75.6854C1009.1 79.0357 1012.5 79.6884 1015.91 81.0372C1019.31 82.386 1024.72 86.389 1024.72 86.389V295.936H-612.453V58.5857V58.6728Z" fill="#F3F8FB"/>
</g>
</g>
</svg>
