<svg width="268" height="207" viewBox="0 0 268 207" fill="none" xmlns="http://www.w3.org/2000/svg">
<mask id="mask0_1358_6894" style="mask-type:alpha" maskUnits="userSpaceOnUse" x="-293" y="0" width="1420" height="218">
<rect x="-293" y="0.848297" width="1420" height="216.683" rx="10" fill="white"/>
</mask>
<g mask="url(#mask0_1358_6894)">
<g style="mix-blend-mode:multiply" opacity="0.7">
<path d="M-613.599 -32.7158L-606.149 -29.5093L-595.175 -27.7774C-595.175 -27.7774 -585.35 -27.6352 -578.775 -25.0321C-572.201 -22.4291 -570.215 -20.764 -563.566 -18.8972C-556.916 -17.0305 -541.011 -13.1059 -541.011 -13.1059C-541.011 -13.1059 -525.941 -6.98363 -516.888 -6.1679C-507.835 -5.35217 -505.914 -1.68226 -497.069 1.16911C-488.224 4.02047 -478.58 5.93843 -474.097 6.99806C-469.66 8.0535 -454.38 15.3312 -454.38 15.3312L-443.785 24.8968L-426.837 42.9027C-426.837 42.9027 -402.426 49.7792 -394.558 51.1876C-386.686 52.5526 -377.429 51.376 -367.465 54.2844C-357.501 57.1929 -345.395 61.6056 -335.252 63.2189C-325.155 64.828 -314.016 59.45 -309.717 61.8481C-305.417 64.2462 -303.986 58.9551 -294.008 61.7336C-289.301 60.147 -286.952 62.3694 -276.193 57.9624C-265.48 53.5512 -245.183 56.2106 -245.183 56.2106L-234.812 55.1343C-224.44 54.0581 -217.699 52.7423 -210.934 53.483C-204.169 54.2237 -200.869 55.3953 -190.269 52.5475C-179.716 49.6955 -176.057 47.3589 -164.591 47.0369C-153.126 46.715 -150.233 40.419 -135.781 44.3438C-121.33 48.2686 -125.348 42.6612 -107.507 46.8914C-89.6665 51.1215 -60.1894 39.6153 -52.2415 40.244C-44.2936 40.8727 -30.6592 27.5893 -19.1736 26.6135C-7.6417 25.6419 0.248439 15.3814 9.43904 14.8545C18.6296 14.3275 28.4512 9.00561 38.8224 7.9294C49.1937 6.8532 60.6574 17.5461 68.53 18.9112C76.4026 20.2762 68.2991 23.9171 87.1125 29.6336C105.926 35.3501 114.472 42.5018 121.026 45.7588C127.534 49.0115 131.579 54.359 140.362 57.8167C149.146 61.2744 150.182 66.2634 157.006 66.8783C163.831 67.4932 167.947 73.0656 181.291 76.3661C194.635 79.6665 189.169 82.7146 203.196 90.7973C217.222 98.8799 217.289 98.2303 226.072 101.688C234.855 105.146 232.692 106.131 245.979 108.159C270.798 111.051 270.864 110.401 290.065 112.787C309.219 115.168 300.371 106.853 318.956 103.807C325.583 97.1914 329.061 92.041 345.506 89.7636C369.671 88.0507 366.292 82.1513 376.858 79.1693C387.424 76.1874 402.925 69.8474 409.779 69.7218C416.633 69.5963 427.383 65.2759 433.275 63.0967C439.209 60.9651 448.639 58.0994 455.688 56.0681C462.736 54.0368 469.224 46.4913 474.004 44.649C478.738 42.8026 490.566 55.8887 502.169 54.2241C513.767 52.6028 525.748 63.7358 530.369 63.4527C534.939 63.2088 537.501 66.106 541.206 63.7736C544.866 61.437 548.54 63.9972 546.26 64.7535C559.248 60.5473 562.703 60.203 568.708 57.3783C574.713 54.5537 586.79 48.2548 586.79 48.2548C586.79 48.2548 589.676 42.4828 596.958 49.1709C604.286 55.8632 618.004 44.5106 618.004 44.5106L643.14 49.7915L664.109 56.8824C664.109 56.8824 680.994 64.9604 686.25 69.4554C691.507 73.9504 690.334 68.4683 699.113 71.9694C707.896 75.4271 709.945 66.3887 713.383 66.2177C716.82 66.0466 727.431 62.6316 727.431 62.6316C727.431 62.6316 732.813 58.5706 738.256 61.2466C743.698 63.9225 741.622 63.6043 744.945 64.5594C748.268 65.5144 757.117 68.3225 760.506 68.6279C763.896 68.9332 771.901 68.9989 771.901 68.9989C771.901 68.9989 779.476 67.321 786.3 67.9359C793.125 68.5509 799.845 63.7799 807.239 69.8226C814.633 75.8652 816.419 80.3971 822.974 83.6541C829.482 86.9068 830.572 87.7044 839.421 90.5125C848.271 93.3205 842.607 92.8102 850.408 94.8681C858.21 96.9261 847.726 98.6478 877.094 101.95C906.463 105.251 916.763 104.868 922.294 106.678C927.821 108.531 919.042 105.03 927.821 108.531C936.604 111.989 954.37 116.955 959.967 118.115C965.565 119.275 970.552 120.905 970.552 120.905C970.552 120.905 978.03 120.18 984.469 124.563C990.908 128.946 983.31 124.895 990.862 128.942C998.46 132.992 1001.78 133.947 1005.03 135.595C1008.29 137.243 1013.26 141.713 1013.26 141.713L991.933 350.301L-637.752 203.462L-613.59 -32.8024L-613.599 -32.7158Z" fill="#E4F0F7"/>
<path d="M-329.453 58.6728L-321.711 61.1964L-310.61 61.9361C-310.61 61.9361 -300.816 61.1964 -294.006 63.1979C-287.197 65.1993 -285.051 66.6787 -278.242 67.9405C-271.432 69.2023 -255.201 71.6824 -255.201 71.6824C-255.201 71.6824 -239.577 76.4251 -230.482 76.4251C-221.387 76.4251 -219.102 79.9059 -210.007 81.9509C-200.912 83.9959 -191.117 85.0402 -186.546 85.6928C-182.022 86.3455 -166.071 92.2194 -166.071 92.2194L-154.551 100.791L-135.848 117.194C-135.848 117.194 -110.849 121.85 -102.873 122.546C-94.8978 123.199 -85.8029 121.197 -75.5887 123.199C-65.3744 125.2 -52.8747 128.507 -42.6138 129.203C-32.3995 129.9 -21.8588 123.547 -17.3346 125.549C-12.8105 127.55 -11.9243 122.155 -1.71005 124.026C2.81406 122.024 5.3793 124.026 15.6402 118.674C25.8545 113.322 46.3297 114.149 46.3297 114.149L56.544 112.147C66.7583 110.146 73.3346 108.231 80.1441 108.362C86.9536 108.492 90.3584 109.363 100.619 105.577C110.834 101.792 114.238 99.1376 125.619 97.7888C136.999 96.44 139.238 89.9134 154.023 92.524C168.808 95.1346 164.237 89.9134 182.427 92.524C200.617 95.1346 228.787 81.0372 236.763 80.9502C244.739 80.8632 256.958 66.4177 268.292 64.4162C279.672 62.4147 286.482 51.4935 295.577 50.1447C304.672 48.7959 313.906 42.6174 324.121 40.6159C334.335 38.6144 346.835 48.2302 354.81 48.8829C362.786 49.5356 355.09 53.8866 374.399 57.8896C393.708 61.8926 402.943 68.2451 409.799 70.8992C416.609 73.5534 421.18 78.5136 430.275 81.1677C439.37 83.8219 440.909 88.6951 447.765 88.6951C454.621 88.6951 459.285 93.8728 472.904 95.9613C486.523 98.0499 481.393 101.574 496.178 108.362C510.963 115.15 510.963 114.497 520.058 117.151C529.153 119.805 527.1 120.98 540.533 121.807C565.532 122.459 565.532 121.807 584.888 122.459C604.197 123.112 594.543 115.628 612.733 110.929C618.656 103.75 621.594 98.3109 637.732 94.569C661.612 90.6966 657.647 85.1272 667.862 81.2113C678.076 77.2953 692.861 69.5939 699.67 68.8542C706.48 68.1146 716.741 62.8498 722.384 60.1521C728.075 57.498 737.169 53.7996 743.979 51.1454C750.789 48.4913 756.479 40.3983 761.049 38.1358C765.574 35.8732 778.679 47.8386 790.06 45.141C801.44 42.4868 814.499 52.4943 819.07 51.7981C823.594 51.1454 826.439 53.7996 829.891 51.1454C833.296 48.4913 837.213 50.7103 835.021 51.6676C847.521 46.3158 850.926 45.6631 856.616 42.3128C862.306 38.9625 873.686 31.6092 873.686 31.6092C873.686 31.6092 875.972 25.6047 883.901 31.6092C891.876 37.6137 904.376 25.0826 904.376 25.0826L929.935 28.0848L951.529 33.2626C951.529 33.2626 969.159 39.7892 974.85 43.7921C980.54 47.7951 978.814 42.4433 987.909 45.141C997.004 47.7951 998.123 38.6144 1001.53 38.1358C1004.93 37.6572 1015.15 33.3061 1015.15 33.3061C1015.15 33.3061 1020.09 28.781 1025.78 30.9565C1031.47 33.1321 1029.37 33.0015 1032.78 33.6542C1036.18 34.3069 1045.28 36.3083 1048.68 36.3083C1052.09 36.3083 1060.06 35.6557 1060.06 35.6557C1060.06 35.6557 1067.43 33.3061 1074.29 33.3061C1081.14 33.3061 1087.35 27.9543 1095.32 33.3061C1103.3 38.6579 1105.54 43.0089 1112.39 45.6631C1119.2 48.3172 1120.37 49.0134 1129.46 51.0149C1138.56 53.0164 1132.87 53.0164 1140.84 54.3652C1148.82 55.714 1138.56 58.3682 1168.13 59.0208C1197.7 59.6735 1207.91 58.3682 1213.6 59.6735C1219.29 61.0223 1210.2 58.3247 1219.29 61.0223C1228.39 63.6765 1246.58 67.0268 1252.27 67.6795C1257.96 68.3321 1263.09 69.5069 1263.09 69.5069C1263.09 69.5069 1270.46 68.1146 1277.31 71.9C1284.17 75.6854 1276.19 72.3351 1284.12 75.6854C1292.1 79.0357 1295.5 79.6884 1298.91 81.0372C1302.31 82.386 1307.72 86.389 1307.72 86.389V295.936H-329.453V58.5857V58.6728Z" fill="#F3F8FB"/>
</g>
</g>
</svg>
