<svg width="268" height="207" viewBox="0 0 268 207" fill="none" xmlns="http://www.w3.org/2000/svg">
<mask id="mask0_1358_6849" style="mask-type:alpha" maskUnits="userSpaceOnUse" x="-10" y="0" width="1420" height="217">
<rect x="-10" width="1420" height="216.683" rx="10" fill="white"/>
</mask>
<g mask="url(#mask0_1358_6849)">
<g style="mix-blend-mode:multiply" opacity="0.7">
<path d="M-330.599 -33.564L-323.149 -30.3576L-312.175 -28.6257C-312.175 -28.6257 -302.35 -28.4835 -295.775 -25.8804C-289.201 -23.2774 -287.215 -21.6123 -280.566 -19.7455C-273.916 -17.8788 -258.011 -13.9542 -258.011 -13.9542C-258.011 -13.9542 -242.941 -7.83192 -233.888 -7.0162C-224.835 -6.20047 -222.914 -2.53056 -214.069 0.320809C-205.224 3.17218 -195.58 5.09013 -191.097 6.14976C-186.66 7.2052 -171.38 14.4829 -171.38 14.4829L-160.785 24.0485L-143.837 42.0544C-143.837 42.0544 -119.426 48.9309 -111.558 50.3393C-103.686 51.7043 -94.4287 50.5277 -84.4649 53.4361C-74.5011 56.3446 -62.3952 60.7573 -52.2521 62.3706C-42.1555 63.9797 -31.0163 58.6017 -26.7166 60.9998C-22.4169 63.3979 -20.9855 58.1068 -11.0085 60.8853C-6.30128 59.2987 -3.95153 61.5211 6.80724 57.1141C17.5196 52.7029 37.8169 55.3623 37.8169 55.3623L48.1882 54.286C58.5595 53.2098 65.3006 51.894 72.0657 52.6347C78.8308 53.3754 82.1314 54.547 92.7307 51.6992C103.284 48.8472 106.943 46.5106 118.409 46.1886C129.874 45.8667 132.767 39.5707 147.219 43.4955C161.67 47.4203 157.652 41.813 175.493 46.0431C193.334 50.2732 222.811 38.767 230.758 39.3957C238.706 40.0244 252.341 26.741 263.826 25.7652C275.358 24.7936 283.248 14.5331 292.439 14.0062C301.63 13.4792 311.451 8.15731 321.822 7.08111C332.194 6.0049 343.657 16.6979 351.53 18.0629C359.403 19.4279 351.299 23.0688 370.112 28.7853C388.926 34.5018 397.472 41.6535 404.026 44.9105C410.534 48.1632 414.579 53.5107 423.362 56.9684C432.146 60.4261 433.182 65.4151 440.006 66.03C446.831 66.6449 450.947 72.2173 464.291 75.5178C477.635 78.8182 472.169 81.8663 486.196 89.949C500.222 98.0316 500.289 97.382 509.072 100.84C517.855 104.297 515.692 105.283 528.979 107.31C553.798 110.202 553.864 109.553 573.065 111.938C592.219 114.32 583.371 106.004 601.956 102.958C608.583 96.3431 612.061 91.1927 628.506 88.9153C652.671 87.2024 649.292 81.303 659.858 78.321C670.424 75.3391 685.925 68.9991 692.779 68.8735C699.633 68.748 710.383 64.4276 716.275 62.2484C722.209 60.1168 731.639 57.2511 738.688 55.2198C745.736 53.1886 752.224 45.643 757.004 43.8007C761.738 41.9543 773.566 55.0404 785.169 53.3758C796.767 51.7545 808.748 62.8875 813.369 62.6044C817.939 62.3606 820.501 65.2577 824.206 62.9253C827.866 60.5887 831.54 63.1489 829.26 63.9052C842.248 59.699 845.703 59.3547 851.708 56.53C857.713 53.7054 869.79 47.4065 869.79 47.4065C869.79 47.4065 872.676 41.6345 879.958 48.3226C887.286 55.0149 901.004 43.6623 901.004 43.6623L926.14 48.9432L947.109 56.0341C947.109 56.0341 963.994 64.1121 969.25 68.6071C974.507 73.1021 973.334 67.62 982.113 71.1211C990.896 74.5788 992.945 65.5405 996.383 65.3694C999.82 65.1983 1010.43 61.7833 1010.43 61.7833C1010.43 61.7833 1015.81 57.7223 1021.26 60.3983C1026.7 63.0742 1024.62 62.756 1027.95 63.7111C1031.27 64.6661 1040.12 67.4742 1043.51 67.7796C1046.9 68.0849 1054.9 68.1506 1054.9 68.1506C1054.9 68.1506 1062.48 66.4727 1069.3 67.0876C1076.13 67.7026 1082.84 62.9316 1090.24 68.9743C1097.63 75.0169 1099.42 79.5488 1105.97 82.8058C1112.48 86.0585 1113.57 86.8561 1122.42 89.6642C1131.27 92.4722 1125.61 91.9619 1133.41 94.0198C1141.21 96.0778 1130.73 97.7995 1160.09 101.101C1189.46 104.403 1199.76 104.02 1205.29 105.83C1210.82 107.683 1202.04 104.182 1210.82 107.683C1219.6 111.14 1237.37 116.107 1242.97 117.267C1248.57 118.427 1253.55 120.056 1253.55 120.056C1253.55 120.056 1261.03 119.331 1267.47 123.714C1273.91 128.097 1266.31 124.047 1273.86 128.093C1281.46 132.144 1284.78 133.099 1288.03 134.747C1291.29 136.395 1296.26 140.865 1296.26 140.865L1274.93 349.453L-354.752 202.613L-330.59 -33.6507L-330.599 -33.564Z" fill="#E4F0F7"/>
<path d="M-46.4531 57.8245L-38.7108 60.3481L-27.6103 61.0878C-27.6103 61.0878 -17.8158 60.3481 -11.0063 62.3496C-4.19679 64.351 -2.05133 65.8304 4.75819 67.0922C11.5677 68.354 27.7986 70.8341 27.7986 70.8341C27.7986 70.8341 43.4232 75.5768 52.5181 75.5768C61.613 75.5768 63.8984 79.0576 72.9933 81.1026C82.0882 83.1476 91.8827 84.1919 96.4535 84.8446C100.978 85.4972 116.929 91.3711 116.929 91.3711L128.449 99.9427L147.152 116.346C147.152 116.346 172.151 121.002 180.127 121.698C188.102 122.351 197.197 120.349 207.411 122.351C217.626 124.352 230.125 127.659 240.386 128.355C250.6 129.051 261.141 122.699 265.665 124.7C270.189 126.702 271.076 121.306 281.29 123.177C285.814 121.176 288.379 123.177 298.64 117.826C308.854 112.474 329.33 113.3 329.33 113.3L339.544 111.299C349.758 109.297 356.335 107.383 363.144 107.514C369.954 107.644 373.358 108.514 383.619 104.729C393.834 100.943 397.238 98.2893 408.619 96.9405C419.999 95.5917 422.238 89.0651 437.023 91.6757C451.808 94.2863 447.237 89.0651 465.427 91.6757C483.617 94.2863 511.787 80.1889 519.763 80.1019C527.739 80.0149 539.958 65.5694 551.292 63.5679C562.672 61.5664 569.482 50.6452 578.577 49.2964C587.672 47.9476 596.906 41.7691 607.121 39.7676C617.335 37.7661 629.835 47.3819 637.81 48.0346C645.786 48.6873 638.09 53.0383 657.399 57.0413C676.708 61.0443 685.943 67.3968 692.799 70.0509C699.609 72.7051 704.18 77.6653 713.275 80.3195C722.37 82.9736 723.909 87.8468 730.765 87.8468C737.621 87.8468 742.285 93.0245 755.904 95.1131C769.523 97.2016 764.393 100.726 779.178 107.514C793.963 114.301 793.963 113.649 803.058 116.303C812.153 118.957 810.1 120.132 823.533 120.958C848.532 121.611 848.532 120.958 867.888 121.611C887.197 122.264 877.543 114.78 895.733 110.081C901.656 102.901 904.594 97.4626 920.732 93.7207C944.612 89.8483 940.647 84.2789 950.862 80.363C961.076 76.447 975.861 68.7456 982.67 68.0059C989.48 67.2663 999.741 62.0015 1005.38 59.3038C1011.07 56.6497 1020.17 52.9513 1026.98 50.2971C1033.79 47.643 1039.48 39.55 1044.05 37.2875C1048.57 35.0249 1061.68 46.9903 1073.06 44.2927C1084.44 41.6385 1097.5 51.646 1102.07 50.9498C1106.59 50.2971 1109.44 52.9513 1112.89 50.2971C1116.3 47.643 1120.21 49.862 1118.02 50.8193C1130.52 45.4675 1133.93 44.8148 1139.62 41.4645C1145.31 38.1142 1156.69 30.7609 1156.69 30.7609C1156.69 30.7609 1158.97 24.7564 1166.9 30.7609C1174.88 36.7654 1187.38 24.2343 1187.38 24.2343L1212.93 27.2365L1234.53 32.4143C1234.53 32.4143 1252.16 38.9409 1257.85 42.9438C1263.54 46.9468 1261.81 41.595 1270.91 44.2927C1280 46.9468 1281.12 37.7661 1284.53 37.2875C1287.93 36.8089 1298.15 32.4578 1298.15 32.4578C1298.15 32.4578 1303.09 27.9327 1308.78 30.1082C1314.47 32.2838 1312.37 32.1532 1315.78 32.8059C1319.18 33.4586 1328.28 35.4601 1331.68 35.4601C1335.09 35.4601 1343.06 34.8074 1343.06 34.8074C1343.06 34.8074 1350.43 32.4578 1357.29 32.4578C1364.14 32.4578 1370.35 27.106 1378.32 32.4578C1386.3 37.8096 1388.54 42.1607 1395.39 44.8148C1402.2 47.4689 1403.37 48.1651 1412.46 50.1666C1421.56 52.1681 1415.87 52.1681 1423.84 53.5169C1431.82 54.8657 1421.56 57.5199 1451.13 58.1725C1480.7 58.8252 1490.91 57.5199 1496.6 58.8252C1502.29 60.174 1493.2 57.4764 1502.29 60.174C1511.39 62.8282 1529.58 66.1785 1535.27 66.8312C1540.96 67.4838 1546.09 68.6586 1546.09 68.6586C1546.09 68.6586 1553.46 67.2663 1560.31 71.0517C1567.17 74.8371 1559.19 71.4868 1567.12 74.8371C1575.1 78.1874 1578.5 78.8401 1581.91 80.1889C1585.31 81.5377 1590.72 85.5407 1590.72 85.5407V295.088H-46.4531V57.7374V57.8245Z" fill="#F3F8FB"/>
</g>
</g>
</svg>
