<svg width="268" height="207" viewBox="0 0 268 207" fill="none" xmlns="http://www.w3.org/2000/svg">
<mask id="mask0_1358_6924" style="mask-type:alpha" maskUnits="userSpaceOnUse" x="-859" y="0" width="1420" height="218">
<rect x="-859" y="0.848236" width="1420" height="216.683" rx="10" fill="white"/>
</mask>
<g mask="url(#mask0_1358_6924)">
<g style="mix-blend-mode:multiply" opacity="0.7">
<path d="M-1179.6 -32.7158L-1172.15 -29.5094L-1161.17 -27.7774C-1161.17 -27.7774 -1151.35 -27.6353 -1144.78 -25.0322C-1138.2 -22.4291 -1136.22 -20.7641 -1129.57 -18.8973C-1122.92 -17.0305 -1107.01 -13.106 -1107.01 -13.106C-1107.01 -13.106 -1091.94 -6.98369 -1082.89 -6.16796C-1073.83 -5.35223 -1071.91 -1.68232 -1063.07 1.16905C-1054.22 4.02041 -1044.58 5.93837 -1040.1 6.998C-1035.66 8.05344 -1020.38 15.3312 -1020.38 15.3312L-1009.78 24.8967L-992.837 42.9027C-992.837 42.9027 -968.426 49.7792 -960.558 51.1875C-952.686 52.5525 -943.429 51.3759 -933.465 54.2844C-923.501 57.1928 -911.395 61.6056 -901.252 63.2189C-891.155 64.828 -880.016 59.4499 -875.717 61.848C-871.417 64.2461 -869.986 58.955 -860.008 61.7335C-855.301 60.147 -852.952 62.3693 -842.193 57.9623C-831.48 53.5511 -811.183 56.2105 -811.183 56.2105L-800.812 55.1343C-790.44 54.0581 -783.699 52.7422 -776.934 53.4829C-770.169 54.2236 -766.869 55.3952 -756.269 52.5474C-745.716 49.6954 -742.057 47.3588 -730.591 47.0369C-719.126 46.7149 -716.233 40.419 -701.781 44.3438C-687.33 48.2685 -691.348 42.6612 -673.507 46.8913C-655.666 51.1215 -626.189 39.6152 -618.242 40.2439C-610.294 40.8726 -596.659 27.5892 -585.174 26.6134C-573.642 25.6418 -565.752 15.3813 -556.561 14.8544C-547.37 14.3275 -537.549 9.00554 -527.178 7.92934C-516.806 6.85314 -505.343 17.5461 -497.47 18.9111C-489.597 20.2761 -497.701 23.917 -478.888 29.6335C-460.074 35.35 -451.528 42.5018 -444.974 45.7587C-438.466 49.0114 -434.421 54.3589 -425.638 57.8166C-416.854 61.2744 -415.818 66.2633 -408.994 66.8782C-402.169 67.4932 -398.053 73.0656 -384.709 76.366C-371.365 79.6665 -376.831 82.7145 -362.804 90.7972C-348.778 98.8799 -348.711 98.2302 -339.928 101.688C-331.145 105.146 -333.308 106.131 -320.021 108.159C-295.202 111.051 -295.136 110.401 -275.935 112.787C-256.781 115.168 -265.629 106.853 -247.044 103.806C-240.417 97.1913 -236.939 92.0409 -220.494 89.7635C-196.329 88.0506 -199.708 82.1512 -189.142 79.1693C-178.576 76.1874 -163.075 69.8473 -156.221 69.7217C-149.367 69.5962 -138.617 65.2758 -132.725 63.0967C-126.791 60.965 -117.361 58.0993 -110.312 56.068C-103.264 54.0368 -96.7759 46.4912 -91.9957 44.649C-87.262 42.8025 -75.4341 55.8887 -63.8312 54.2241C-52.2328 52.6028 -40.252 63.7357 -35.6313 63.4527C-31.0614 63.2088 -28.4994 66.106 -24.7937 63.7735C-21.1342 61.4369 -17.4603 63.9972 -19.7398 64.7534C-6.7525 60.5472 -3.29683 60.2029 2.70829 57.3783C8.71341 54.5536 20.7901 48.2547 20.7901 48.2547C20.7901 48.2547 23.6763 42.4827 30.9576 49.1708C38.2856 55.8632 52.0036 44.5105 52.0036 44.5105L77.1402 49.7914L98.1088 56.8823C98.1088 56.8823 114.994 64.9603 120.25 69.4553C125.507 73.9503 124.334 68.4682 133.113 71.9693C141.896 75.427 143.945 66.3887 147.383 66.2176C150.82 66.0466 161.431 62.6316 161.431 62.6316C161.431 62.6316 166.813 58.5706 172.256 61.2465C177.698 63.9224 175.622 63.6043 178.945 64.5593C182.268 65.5144 191.117 68.3224 194.506 68.6278C197.896 68.9332 205.901 68.9988 205.901 68.9988C205.901 68.9988 213.476 67.3209 220.3 67.9359C227.125 68.5508 233.845 63.7799 241.239 69.8225C248.633 75.8652 250.419 80.3971 256.974 83.654C263.482 86.9068 264.572 87.7044 273.421 90.5124C282.271 93.3205 276.607 92.8101 284.408 94.8681C292.21 96.9261 281.726 98.6478 311.094 101.95C340.463 105.251 350.763 104.868 356.294 106.678C361.821 108.531 353.042 105.03 361.821 108.531C370.604 111.989 388.37 116.955 393.967 118.115C399.565 119.275 404.552 120.905 404.552 120.905C404.552 120.905 412.03 120.18 418.469 124.563C424.908 128.946 417.31 124.895 424.862 128.942C432.46 132.992 435.783 133.947 439.035 135.595C442.286 137.243 447.265 141.713 447.265 141.713L425.933 350.301L-1203.75 203.462L-1179.59 -32.8025L-1179.6 -32.7158Z" fill="#E4F0F7"/>
<path d="M-895.453 58.6727L-887.711 61.1963L-876.61 61.936C-876.61 61.936 -866.816 61.1963 -860.006 63.1978C-853.197 65.1993 -851.051 66.6787 -844.242 67.9405C-837.432 69.2023 -821.201 71.6824 -821.201 71.6824C-821.201 71.6824 -805.577 76.425 -796.482 76.425C-787.387 76.425 -785.102 79.9059 -776.007 81.9509C-766.912 83.9959 -757.117 85.0401 -752.546 85.6928C-748.022 86.3454 -732.071 92.2194 -732.071 92.2194L-720.551 100.791L-701.848 117.194C-701.848 117.194 -676.849 121.85 -668.873 122.546C-660.898 123.199 -651.803 121.197 -641.589 123.199C-631.374 125.2 -618.875 128.507 -608.614 129.203C-598.4 129.9 -587.859 123.547 -583.335 125.548C-578.811 127.55 -577.924 122.155 -567.71 124.026C-563.186 122.024 -560.621 124.026 -550.36 118.674C-540.146 113.322 -519.67 114.149 -519.67 114.149L-509.456 112.147C-499.242 110.146 -492.665 108.231 -485.856 108.362C-479.046 108.492 -475.642 109.363 -465.381 105.577C-455.166 101.792 -451.762 99.1376 -440.381 97.7887C-429.001 96.4399 -426.762 89.9133 -411.977 92.5239C-397.192 95.1346 -401.763 89.9133 -383.573 92.5239C-365.383 95.1346 -337.213 81.0371 -329.237 80.9501C-321.261 80.8631 -309.042 66.4176 -297.708 64.4161C-286.328 62.4146 -279.518 51.4934 -270.423 50.1446C-261.328 48.7958 -252.094 42.6173 -241.879 40.6158C-231.665 38.6143 -219.165 48.2302 -211.19 48.8828C-203.214 49.5355 -210.91 53.8866 -191.601 57.8895C-172.292 61.8925 -163.057 68.245 -156.201 70.8992C-149.391 73.5533 -144.82 78.5135 -135.725 81.1677C-126.63 83.8218 -125.091 88.695 -118.235 88.695C-111.379 88.695 -106.715 93.8728 -93.0959 95.9613C-79.4769 98.0498 -84.6073 101.574 -69.8223 108.362C-55.0372 115.149 -55.0372 114.497 -45.9423 117.151C-36.8474 119.805 -38.8997 120.98 -25.4672 121.807C-0.467834 122.459 -0.467712 121.807 18.8881 122.459C38.1973 123.112 28.5427 115.628 46.7325 110.929C52.6559 103.75 55.5942 98.3109 71.7318 94.5689C95.6118 90.6965 91.6473 85.1272 101.862 81.2112C112.076 77.2952 126.861 69.5939 133.67 68.8542C140.48 68.1145 150.741 62.8497 156.384 60.1521C162.075 57.4979 171.169 53.7995 177.979 51.1454C184.789 48.4912 190.479 40.3983 195.049 38.1357C199.574 35.8732 212.679 47.8386 224.06 45.1409C235.44 42.4868 248.499 52.4942 253.07 51.798C257.594 51.1454 260.439 53.7995 263.891 51.1454C267.296 48.4912 271.213 50.7103 269.021 51.6675C281.521 46.3157 284.926 45.663 290.616 42.3127C296.306 38.9624 307.686 31.6091 307.686 31.6091C307.686 31.6091 309.972 25.6047 317.901 31.6091C325.876 37.6136 338.376 25.0826 338.376 25.0826L363.935 28.0848L385.529 33.2625C385.529 33.2625 403.159 39.7891 408.85 43.7921C414.54 47.7951 412.814 42.4433 421.909 45.1409C431.004 47.7951 432.123 38.6143 435.528 38.1357C438.933 37.6571 449.147 33.306 449.147 33.306C449.147 33.306 454.091 28.7809 459.781 30.9565C465.471 33.132 463.372 33.0015 466.777 33.6541C470.182 34.3068 479.277 36.3083 482.682 36.3083C486.086 36.3083 494.062 35.6556 494.062 35.6556C494.062 35.6556 501.431 33.306 508.287 33.306C515.143 33.306 521.347 27.9542 529.322 33.306C537.298 38.6578 539.536 43.0089 546.393 45.663C553.202 48.3172 554.368 49.0134 563.463 51.0148C572.558 53.0163 566.868 53.0163 574.843 54.3651C582.819 55.714 572.558 58.3681 602.128 59.0208C631.698 59.6734 641.912 58.3681 647.603 59.6734C653.293 61.0223 644.198 58.3246 653.293 61.0223C662.388 63.6764 680.578 67.0267 686.268 67.6794C691.958 68.3321 697.088 69.5068 697.088 69.5068C697.088 69.5068 704.457 68.1145 711.313 71.8999C718.17 75.6853 710.194 72.335 718.123 75.6853C726.099 79.0357 729.503 79.6883 732.908 81.0372C736.313 82.386 741.723 86.3889 741.723 86.3889V295.936H-895.453V58.5857V58.6727Z" fill="#F3F8FB"/>
</g>
</g>
</svg>
