<svg width="71" height="71" viewBox="0 0 71 71" fill="none" xmlns="http://www.w3.org/2000/svg">
<path fill-rule="evenodd" clip-rule="evenodd" d="M70.4068 21.2135L71 18.9422L45.1736 11.9968L45.3771 11.1456C45.8762 9.26507 44.7378 7.40974 42.8718 6.85836L29.8348 3.34889C28.9018 3.11673 27.9208 3.25409 27.0819 3.76097C26.3063 4.19434 25.7131 4.97594 25.4885 5.91618L25.3311 6.64555L0.593208 0L0 2.27129L30.8081 10.5478V23.6434H16.1777C13.1983 23.6434 10.718 25.847 10.3782 28.8012L7.44095 52.3073C7.37376 52.9516 7.37375 53.6384 7.53117 54.2788L10.0806 66.322C10.6508 69.0228 13.0639 71 15.8379 71H55.2043C57.9361 71 60.3473 69.075 60.9156 66.322L63.465 54.2788C63.6262 53.6384 63.6704 52.9516 63.5591 52.3073L60.6909 28.8012C60.282 25.847 57.8017 23.6434 54.8184 23.6434H39.0285V12.7726L70.4087 21.2116L70.4068 21.2135ZM58.6176 65.8171C58.2759 67.4441 56.8188 68.63 55.2043 68.63H15.8379C14.1754 68.63 12.7644 67.4441 12.3766 65.8171L10.9445 59.1676H24.9395V62.7197C24.9395 64.6949 26.5079 66.2543 28.4641 66.2543H42.5282C44.4844 66.2543 46.0567 64.6949 46.0567 62.7197V59.1676H60.0517L58.6157 65.8171H58.6176ZM14.4269 53.1818L17.7519 30.732H25.1929C25.0316 31.1441 24.9414 31.5349 24.9414 31.9257V56.7803H15.3138L14.4269 53.1818ZM27.2854 62.7216V31.9238C27.2854 31.2795 27.8306 30.7301 28.466 30.7301H42.5301C43.1694 30.7301 43.7146 31.2795 43.7146 31.9238V62.7177C43.7146 63.362 43.1694 63.8901 42.5301 63.8901H28.466C27.8306 63.8901 27.2854 63.362 27.2854 62.7177V62.7216ZM45.8762 30.732H53.2961L56.6153 53.1818L55.6823 56.7803H46.0586V31.9238C46.0586 31.533 46.0106 31.1422 45.8743 30.7301L45.8762 30.732ZM54.8184 26.0076C56.6172 26.0076 58.0954 27.3386 58.3258 29.105L61.215 52.5859C61.2611 52.998 61.2611 53.3888 61.169 53.7796L60.5335 56.7822H58.1415L58.9171 53.5262C58.9593 53.3888 58.9593 53.2302 58.9593 53.0928L55.4558 29.401C55.3406 28.8032 54.8626 28.3698 54.2713 28.3698H16.7249C16.1316 28.3698 15.6556 28.8032 15.5442 29.401L12.0368 53.0928C12.0368 53.2302 12.0368 53.3888 12.0829 53.5262L12.8585 56.7822H10.4684L9.82912 53.7796C9.73889 53.3888 9.73888 52.998 9.78688 52.5859L12.6761 29.105C12.9026 27.3406 14.4269 26.0076 16.1796 26.0076H54.8184ZM33.156 23.6454V11.192L36.6845 12.1322V23.6434H33.156V23.6454ZM27.581 7.24723L27.7634 6.51206C27.8306 6.21605 28.0149 5.92005 28.3086 5.78269C28.5601 5.62018 28.9018 5.57181 29.1955 5.62018L42.2575 9.17608C42.8718 9.33472 43.2807 9.97896 43.1233 10.6193L42.9409 11.4009L27.581 7.24723Z" fill="#0A6DB5"/>
</svg>
