<svg width="67" height="67" viewBox="0 0 67 67" fill="none" xmlns="http://www.w3.org/2000/svg">
<path d="M52.4521 38.5229C50.353 38.4582 48.4007 38.888 46.5971 39.6653L44.0326 34.5776L44.9441 34.9663C45.452 35.2038 46.0023 35.3117 46.5546 35.3117C48.2095 35.3117 49.7776 34.3205 50.4573 32.7031C50.5828 32.444 50.6485 32.1869 50.7122 31.9278H52.091C52.6201 31.9278 53.1087 31.4959 53.1087 30.9797C53.1299 30.4183 52.6838 29.9217 52.1335 29.9217H50.6929C50.6079 29.749 50.5442 29.5566 50.4805 29.3603C50.0769 28.2847 49.2079 27.3995 48.1053 26.9264L40.8502 23.886L41.0202 17.2456V17.2024C42.1441 17.8286 43.4591 18.1525 44.8379 18.1525C49.2272 18.1525 52.875 14.6802 53.1743 10.2402C53.576 10.0243 53.9796 9.65723 54.2982 9.26859C54.8717 8.36371 55.0397 7.22133 54.6806 6.22813C54.0645 4.50475 53.0681 3.12486 51.7106 2.06885C49.9707 0.688961 47.6592 0 44.8379 0C42.9493 0 41.1051 0.581004 39.3034 1.76853C38.8149 2.06885 38.6874 2.71659 39.0485 3.18964C39.344 3.62146 39.9175 3.70587 40.3617 3.44873C41.8254 2.50067 43.3317 2.00407 44.836 2.00407C48.9723 2.00407 51.643 3.64305 52.8094 6.85428C52.958 7.28611 52.8943 7.75915 52.6838 8.10462C52.4289 8.45008 52.0253 8.64244 51.6237 8.64244H36.3335C36.0573 8.64244 35.9086 8.46971 35.8874 8.36371C35.8449 8.29894 35.7812 8.08303 35.9106 7.8887C36.3759 7.21937 36.8645 6.63837 37.3318 6.07895C37.691 5.69031 37.691 5.08771 37.3106 4.69907C36.9282 4.31239 36.2697 4.31239 35.8874 4.72066C35.3795 5.34681 34.8292 6.01418 34.3406 6.7051C33.7883 7.45884 33.7246 8.45204 34.1494 9.29214C34.2112 9.41973 34.3193 9.55124 34.4043 9.67882C32.9618 10.2814 31.668 11.1667 30.5441 12.2875L24.3724 18.5823C24.2874 18.6903 24.1812 18.7551 24.1175 18.8414C24.1175 18.8414 24.1175 18.8846 24.0943 18.8846C21.5511 21.7739 21.6766 26.1727 24.3705 28.9305L24.7953 29.3623H18.8785C18.3475 29.3623 17.8589 29.7941 17.8589 30.3535C17.8377 30.9149 18.2837 31.3664 18.8341 31.3664H21.2518L23.6695 35.7004L20.8077 40.2699C18.6449 39.0843 16.1634 38.415 13.5121 38.5229C6.13152 38.782 0.172233 44.9905 0.0872655 52.5357C-0.0189434 60.4892 6.25897 67 14.0644 67C21.443 67 27.5104 61.1154 27.997 53.7213H34.3387C34.6978 53.7213 35.0165 53.5702 35.1864 53.2247L43.6271 38.1343L44.836 40.5938C40.7228 43.1592 37.9865 47.8799 38.1352 53.2031C38.3669 60.6835 44.3262 66.7409 51.643 66.9568C59.5971 67.2571 66.1492 60.6835 66.0855 52.6221C66.0217 44.9689 59.9563 38.6957 52.4502 38.5249L52.4521 38.5229ZM43.9689 10.6504H47.1088V11.4905C47.1088 12.05 47.553 12.5034 48.0628 12.5034C48.6151 12.5034 49.0805 12.05 49.0805 11.4905V10.6504H51.1583C50.6929 13.7557 48.0415 16.168 44.8379 16.168C44.5193 16.168 44.2451 16.168 43.9689 16.0816V10.6504ZM42.0166 10.6504V15.5006C40.1724 14.5742 38.8149 12.7841 38.4963 10.6504H42.0166ZM31.9229 13.6909C33.238 12.3758 34.8292 11.4689 36.5884 11.0391C36.6946 11.6652 36.8645 12.2482 37.0769 12.8076H36.8645C34.5105 12.7448 32.5389 14.6193 32.4752 17.012L32.284 25.7212L26.2185 19.5343L31.9248 13.6929L31.9229 13.6909ZM24.9672 21.0634L33.1742 29.4271C33.3654 29.6862 33.5991 29.9237 33.852 30.1612L35.1034 31.4331L31.5618 33.4588L25.7724 27.531C24.0538 25.784 23.7796 23.1106 24.9652 21.0634H24.9672ZM23.5034 31.3683H26.3247C26.4522 31.3683 26.5796 31.3252 26.6646 31.3036L30.3124 35.0114H25.5407L23.5034 31.3683ZM29.8663 37.0155L28.9336 41.0884L26.6627 37.0155H29.8663ZM13.1973 53.2267C13.3672 53.5289 13.7052 53.7233 14.0682 53.7233H22.8256C22.3602 58.2712 18.6043 61.7867 14.0682 61.7867C9.1691 61.7867 5.20267 57.7118 5.20267 52.7536C5.20267 47.7955 9.1691 43.7422 14.0682 43.7422C15.4895 43.7422 16.8045 44.066 18.0115 44.6686L13.2398 52.2138C13.0274 52.5161 13.0274 52.9028 13.1973 53.2267ZM15.8487 51.7624L19.6452 45.7482C21.385 47.2341 22.5707 49.3265 22.8256 51.7624H15.8487ZM14.0682 64.9979C7.4292 64.9979 2.04344 59.5019 2.04344 52.7536C2.04344 46.0053 7.43113 40.4858 14.0682 40.4858C16.1036 40.4858 18.0327 41.0256 19.7513 41.9305L19.0735 42.9884C17.5885 42.2131 15.8699 41.7381 14.0682 41.7381C8.10894 41.7381 3.23105 46.6747 3.23105 52.7536C3.23105 58.8326 8.10894 63.7476 14.0682 63.7476C19.6876 63.7476 24.3106 59.3508 24.8397 53.7233H26.0293C25.5407 60.0397 20.3442 64.9979 14.0682 64.9979ZM24.8397 51.7624C24.5443 48.6375 22.9956 45.9209 20.7053 44.066L21.3831 43.0532C23.9901 45.1005 25.7299 48.2057 26.0273 51.7624H24.8378H24.8397ZM27.999 51.7624C27.7035 47.5148 25.5813 43.7853 22.4433 41.3494L24.776 37.6652L28.2751 43.9384L27.8715 45.6638C27.5741 46.9985 27.9565 48.4216 28.9317 49.3932C29.482 49.9526 30.1405 50.3197 30.882 50.4924C31.1582 50.514 31.4131 50.5572 31.668 50.5572H31.9634L32.6219 51.7643H27.999V51.7624ZM31.3069 48.506C30.9265 48.4412 30.5654 48.2469 30.3105 47.9898C29.8219 47.4932 29.6326 46.8042 29.8026 46.1153L32.0928 36.1989L32.284 35.3804L36.4416 32.9445C36.5903 33.3312 36.654 33.8062 36.5691 34.2164L36.1867 35.8122L33.6416 46.9789C33.3654 48.0133 32.3497 48.7474 31.3088 48.5099L31.3069 48.506ZM34.3406 50.7495L33.852 49.8643C34.6592 49.3049 35.2733 48.4412 35.5263 47.3852L37.9227 37.0155H41.9741L34.3387 50.7476L34.3406 50.7495ZM38.4132 35.0114L38.477 34.6895C38.6681 33.8258 38.5619 32.9426 38.2433 32.1437L41.2345 33.4392L42.0417 35.0114H38.4152H38.4132ZM42.3372 31.7354L35.6344 28.9324C35.5089 28.8696 35.3795 28.8049 35.254 28.6969C34.5955 28.2435 34.2131 27.5329 34.2131 26.7125L34.4468 17.0768C34.4681 15.8049 35.507 14.7921 36.7158 14.7921H36.8008C38.0734 14.8136 39.0717 15.8913 39.0505 17.1848L38.8786 24.5357C38.8574 24.9243 39.1123 25.3345 39.4734 25.4621L47.3618 28.7833C47.9122 28.9972 48.337 29.429 48.59 29.9256H46.6608C46.1105 29.9256 45.6432 30.3771 45.6432 30.9385C45.6432 31.4999 46.1105 31.9297 46.6608 31.9297H48.6537C48.1246 33.0721 46.8095 33.5883 45.6856 33.1369L42.3333 31.7374L42.3372 31.7354ZM52.0929 64.9979C45.4964 64.9979 40.1087 59.5019 40.1087 52.7536C40.1087 48.3765 42.3565 44.5391 45.7494 42.3623L46.3016 43.4615C43.3123 45.4243 41.2963 48.8299 41.2963 52.7536C41.2963 58.809 46.1317 63.7476 52.091 63.7476C53.491 63.7476 54.8041 63.51 56.0555 62.9938C56.5865 62.7995 56.797 62.2401 56.6078 61.7219C56.4166 61.1821 55.845 60.9466 55.3564 61.1605C54.3156 61.5492 53.2342 61.7867 52.091 61.7867C47.2344 61.7867 43.2679 57.7118 43.2679 52.7536C43.2679 49.6288 44.8379 46.869 47.1919 45.2516L51.2201 53.2051C51.4113 53.5289 51.7511 53.7213 52.091 53.7213C52.2609 53.7213 52.4309 53.6997 52.5564 53.6349C53.0237 53.3758 53.2342 52.7732 52.96 52.2766L48.9318 44.3428C49.9494 43.9326 51.0096 43.7402 52.091 43.7402C56.9901 43.7402 60.9546 47.7935 60.9546 52.7517C60.9546 55.2955 59.8964 57.7314 58.0715 59.4332C57.6467 59.7983 57.6042 60.4244 57.9653 60.8563C58.3477 61.243 58.9617 61.2881 59.3441 60.9191C61.6131 58.8071 62.9282 55.853 62.9282 52.7497C62.9282 46.6707 58.0715 41.7342 52.091 41.7342C50.691 41.7342 49.2909 42.0364 48.0396 42.5311L47.4873 41.4554C48.9086 40.8293 50.4786 40.4838 52.091 40.4838C58.73 40.4838 64.1138 45.9798 64.1138 52.7517C64.1138 59.5235 58.7281 64.9959 52.091 64.9959L52.0929 64.9979Z" fill="#076CB4"/>
</svg>
