<svg width="327" height="187" viewBox="0 0 327 187" fill="none" xmlns="http://www.w3.org/2000/svg">
<path d="M158.868 0H147.086V25.141L158.868 36.976V0Z" fill="white"/>
<path d="M137.797 0H122.07L137.797 15.8092V0Z" fill="white"/>
<path d="M115.477 6.57568V22.4288H131.258L115.477 6.57568Z" fill="white"/>
<path d="M137.794 46.6697H147.084V70.5482L158.865 82.3832V50.1609L140.515 31.7388H115.477V38.798L137.794 61.2164V46.6697Z" fill="white"/>
<path d="M148.002 84.667L147.991 84.656L136.242 96.469H148.002H159.762L148.002 84.656V84.667Z" fill="white"/>
<path d="M115.477 51.9839V67.848H131.258L115.477 51.9839Z" fill="white"/>
<path d="M115.477 77.1467V96.4691H121.28L140.515 77.1467H115.477Z" fill="white"/>
<path d="M189.203 0V15.8092L204.93 0H189.203Z" fill="white"/>
<path d="M179.914 0H168.133V36.976L179.914 25.141V0Z" fill="white"/>
<path d="M195.734 22.4288H211.516V6.57568L195.734 22.4288Z" fill="white"/>
<path d="M168.133 50.1609V82.3832L179.914 70.5482V46.6697H189.204V61.2164L211.522 38.798V31.7388H186.483L168.133 50.1609Z" fill="white"/>
<path d="M178.994 84.667V84.656V84.667L178.983 84.656L167.234 96.469H178.994H190.754L178.994 84.656V84.667Z" fill="white"/>
<path d="M211.516 67.848V51.9839L195.734 67.848H211.516Z" fill="white"/>
<path d="M205.72 96.4691H211.523V77.1467H186.484L205.72 96.4691Z" fill="white"/>
<path d="M286.101 130.953C283.456 129.152 280.374 128.208 277.183 128.208H272.658C269.467 128.208 266.385 129.163 263.74 130.953C259.314 133.961 256.68 138.934 256.68 144.259C256.68 149.584 259.325 154.557 263.74 157.565C266.385 159.366 269.467 160.31 272.658 160.31H277.183C280.374 160.31 283.456 159.355 286.101 157.565C290.527 154.557 293.161 149.584 293.161 144.259C293.161 138.934 290.516 133.95 286.101 130.953ZM284.768 144.259C284.768 149.046 281.369 152.943 277.183 152.943H272.658C268.472 152.943 265.073 149.046 265.073 144.259C265.073 139.472 268.472 135.575 272.658 135.575H277.183C281.369 135.575 284.768 139.472 284.768 144.259Z" fill="white"/>
<path d="M116.961 140.581H95.2451V128.208H86.8516V160.321H95.2451V147.948H116.961V160.321H125.366V128.208H116.961V140.581Z" fill="white"/>
<path d="M171.885 128.208L163.961 140.581H160.093V128.208H151.666V140.581H147.808L139.874 128.208H129.852L140.278 144.259L129.852 160.321H139.874L147.797 147.948H151.666V160.321H160.093V147.948H163.95L171.885 160.321H181.907L171.481 144.259L181.907 128.208H171.885Z" fill="white"/>
<path d="M326.999 128.208H316.988L309.053 140.581H305.151V128.208H296.758V160.321H305.151V147.948H309.053L316.988 160.321H326.999L316.583 144.259L326.999 128.208Z" fill="white"/>
<path d="M186.703 160.321H215.687V152.932L195.097 152.943V147.948H210.867V140.581H195.097V135.575L215.687 135.597V128.208H186.703V160.321Z" fill="white"/>
<path d="M56.8449 128.208L59.6318 133.116L43.9922 160.321H52.4623L55.435 155.139H72.1238L75.0637 160.321H84.5284L66.1346 128.208H56.8339H56.8449ZM59.7302 147.684L63.8395 140.526L67.9052 147.684H59.7302V147.684Z" fill="white"/>
<path d="M244.367 128.208H221.492V160.321H229.897V147.948H244.378C249.777 147.948 254.192 143.523 254.203 138.078C254.203 132.633 249.799 128.208 244.378 128.208H244.367ZM229.886 140.581V135.586H243.361C244.706 135.619 245.613 136.728 245.613 138.089C245.613 139.384 244.618 140.449 243.361 140.57L229.886 140.592V140.581Z" fill="white"/>
<path d="M36.7984 128.219L20.8419 142.162L4.88533 128.219H0V160.332H8.40451V141.877L20.8419 152.745L33.2902 141.877V160.332H41.6838V128.219H36.7984Z" fill="white"/>
<path d="M139.26 180.796L136.998 176.405H134.43L138.014 183.376L137.971 183.475C137.883 183.661 137.796 183.782 137.697 183.848C137.599 183.914 137.446 183.947 137.238 183.947H135.894V186.219H137.391C138.135 186.219 138.692 186.055 139.064 185.714C139.413 185.407 139.807 184.803 140.277 183.892L144.08 176.405H141.534L139.271 180.796H139.26Z" fill="white"/>
<path d="M156.628 176.405H151.797V186.219H154.245V182.695H156.628C157.742 182.695 158.617 182.399 159.218 181.806C159.819 181.213 160.114 180.445 160.114 179.544C160.114 178.644 159.808 177.898 159.218 177.294C158.617 176.701 157.753 176.405 156.628 176.405V176.405ZM157.666 179.544C157.666 179.819 157.578 180.017 157.382 180.17C157.174 180.335 156.879 180.423 156.507 180.423H154.256V178.666H156.507C156.89 178.666 157.196 178.754 157.393 178.919C157.578 179.072 157.666 179.27 157.666 179.544V179.544Z" fill="white"/>
<path d="M171.599 176.229C170.135 176.229 168.911 176.723 167.96 177.7C167.009 178.677 166.539 179.896 166.539 181.312C166.539 182.728 167.02 183.947 167.96 184.924C168.911 185.901 170.135 186.406 171.599 186.406C173.064 186.406 174.299 185.912 175.239 184.924C176.179 183.947 176.659 182.728 176.659 181.312C176.659 179.896 176.179 178.666 175.239 177.7C174.288 176.723 173.064 176.229 171.599 176.229ZM174.211 181.312C174.211 182.113 173.971 182.761 173.457 183.321C172.954 183.87 172.353 184.133 171.599 184.133C170.845 184.133 170.233 183.87 169.741 183.321C169.239 182.772 168.987 182.113 168.987 181.312C168.987 180.51 169.228 179.852 169.741 179.303C170.244 178.765 170.845 178.501 171.599 178.501C172.353 178.501 172.965 178.765 173.468 179.303C173.971 179.852 174.222 180.51 174.222 181.312H174.211Z" fill="white"/>
<path d="M188.479 176.404H183.648V186.219H186.097V182.695H188.479C189.594 182.695 190.468 182.399 191.058 181.806C191.66 181.213 191.955 180.455 191.955 179.544C191.955 178.633 191.649 177.886 191.058 177.294C190.468 176.701 189.594 176.393 188.479 176.393V176.404ZM189.517 179.544C189.517 179.819 189.43 180.016 189.233 180.181C189.026 180.346 188.731 180.433 188.359 180.433H186.107V178.677H188.359C188.752 178.677 189.047 178.765 189.244 178.929C189.43 179.083 189.517 179.281 189.517 179.555V179.544Z" fill="white"/>
<path d="M199.672 176.405V178.677H202.656V186.219H205.104V178.677H208.065V176.405H199.672Z" fill="white"/>
<path d="M124.908 181.235L128.045 176.405H125.225L122.733 180.291H121.29V176.405H118.93V186.219H121.29V182.333H122.722L122.766 182.399L125.225 186.219H128.045L124.853 181.312L124.908 181.235Z" fill="white"/>
</svg>
