<svg width="106" height="60" viewBox="0 0 106 60" fill="none" xmlns="http://www.w3.org/2000/svg">
<path d="M51.3641 0H47.5547V8.09235L51.3641 11.9018V0Z" fill="url(#paint0_linear_2986_2839)"/>
<path d="M44.5539 0H39.4688L44.5539 5.08864V0Z" fill="url(#paint1_linear_2986_2839)"/>
<path d="M37.3359 2.1167V7.21947H42.4387L37.3359 2.1167Z" fill="url(#paint2_linear_2986_2839)"/>
<path d="M44.5519 15.022H47.5556V22.708L51.365 26.5174V16.1457L45.4318 10.2161H37.3359V12.4883L44.5519 19.7043V15.022Z" fill="url(#paint3_linear_2986_2839)"/>
<path d="M47.8492 27.2526L47.8457 27.249L44.0469 31.0514H47.8492H51.6516L47.8492 27.249V27.2526Z" fill="url(#paint4_linear_2986_2839)"/>
<path d="M37.3359 16.7324V21.8387H42.4387L37.3359 16.7324Z" fill="url(#paint5_linear_2986_2839)"/>
<path d="M37.3359 24.8318V31.0512H39.2124L45.4318 24.8318H37.3359Z" fill="url(#paint6_linear_2986_2839)"/>
<path d="M61.1719 0V5.08864L66.257 0H61.1719Z" fill="url(#paint7_linear_2986_2839)"/>
<path d="M58.1688 0H54.3594V11.9018L58.1688 8.09235V0Z" fill="url(#paint8_linear_2986_2839)"/>
<path d="M63.2891 7.21947H68.3918V2.1167L63.2891 7.21947Z" fill="url(#paint9_linear_2986_2839)"/>
<path d="M54.3594 16.1457V26.5174L58.1688 22.708V15.022H61.1725V19.7043L68.3885 12.4883V10.2161H60.2926L54.3594 16.1457Z" fill="url(#paint10_linear_2986_2839)"/>
<path d="M57.8727 27.2526V27.249V27.2526L57.8691 27.249L54.0703 31.0514H57.8727H61.675L57.8727 27.249V27.2526Z" fill="url(#paint11_linear_2986_2839)"/>
<path d="M68.3918 21.8387V16.7324L63.2891 21.8387H68.3918Z" fill="url(#paint12_linear_2986_2839)"/>
<path d="M66.5163 31.0512H68.3928V24.8318H60.2969L66.5163 31.0512Z" fill="url(#paint13_linear_2986_2839)"/>
<path d="M92.5051 42.151C91.6499 41.5715 90.6534 41.2676 89.6216 41.2676H88.1586C87.1267 41.2676 86.1302 41.575 85.275 42.151C83.8438 43.1193 82.9922 44.7201 82.9922 46.434C82.9922 48.1478 83.8474 49.7486 85.275 50.7169C86.1302 51.2964 87.1267 51.6003 88.1586 51.6003H89.6216C90.6534 51.6003 91.6499 51.2929 92.5051 50.7169C93.9363 49.7486 94.7879 48.1478 94.7879 46.434C94.7879 44.7201 93.9328 43.1157 92.5051 42.151ZM92.074 46.434C92.074 47.9747 90.975 49.2292 89.6216 49.2292H88.1586C86.8051 49.2292 85.7061 47.9747 85.7061 46.434C85.7061 44.8932 86.8051 43.6387 88.1586 43.6387H89.6216C90.975 43.6387 92.074 44.8932 92.074 46.434Z" fill="#2A2A29"/>
<path d="M37.8215 45.2501H30.7999V41.2676H28.0859V51.6039H30.7999V47.6213H37.8215V51.6039H40.539V41.2676H37.8215V45.2501Z" fill="#2A2A29"/>
<path d="M55.5753 41.2676L53.0133 45.2501H51.7623V41.2676H49.0378V45.2501H47.7904L45.2249 41.2676H41.9844L45.3556 46.434L41.9844 51.6039H45.2249L47.7868 47.6213H49.0378V51.6039H51.7623V47.6213H53.0098L55.5753 51.6039H58.8158L55.4445 46.434L58.8158 41.2676H55.5753Z" fill="#2A2A29"/>
<path d="M105.731 41.2676H102.494L99.9286 45.2501H98.6671V41.2676H95.9531V51.6039H98.6671V47.6213H99.9286L102.494 51.6039H105.731L102.363 46.434L105.731 41.2676Z" fill="#2A2A29"/>
<path d="M60.3672 51.6039H69.7388V49.2256L63.0811 49.2292V47.6213H68.1804V45.2501H63.0811V43.6387L69.7388 43.6458V41.2676H60.3672V51.6039Z" fill="#2A2A29"/>
<path d="M18.3823 41.2676L19.2834 42.8472L14.2266 51.6039H16.9652L17.9264 49.9359H23.3225L24.2731 51.6039H27.3333L21.386 41.2676H18.3788H18.3823ZM19.3152 47.5365L20.6439 45.2325L21.9585 47.5365H19.3152V47.5365Z" fill="#2A2A29"/>
<path d="M79.0134 41.2676H71.6172V51.6039H74.3347V47.6213H79.0169C80.7626 47.6213 82.1902 46.1972 82.1938 44.4444C82.1938 42.6917 80.7697 41.2676 79.0169 41.2676H79.0134ZM74.3311 45.2501V43.6423H78.6883C79.1229 43.6529 79.4162 44.0098 79.4162 44.448C79.4162 44.865 79.0947 45.2077 78.6883 45.2466L74.3311 45.2537V45.2501Z" fill="#2A2A29"/>
<path d="M11.8982 41.2712L6.73891 45.7591L1.5796 41.2712H0V51.6075H2.71747V45.6673L6.73891 49.1657L10.7639 45.6673V51.6075H13.4778V41.2712H11.8982Z" fill="#2A2A29"/>
<path d="M45.0229 58.194L44.2914 56.7805H43.4609L44.62 59.0245L44.6059 59.0563C44.5776 59.1163 44.5493 59.1552 44.5175 59.1764C44.4857 59.1976 44.4363 59.2082 44.3691 59.2082H43.9345V59.9397H44.4186C44.6589 59.9397 44.8391 59.8867 44.9593 59.7772C45.0723 59.6782 45.1996 59.4839 45.3515 59.1906L46.5813 56.7805H45.7579L45.0264 58.194H45.0229Z" fill="#2A2A29"/>
<path d="M50.6401 56.7805H49.0781V59.9397H49.8697V58.8054H50.6401C51.0005 58.8054 51.2832 58.71 51.4776 58.5191C51.6719 58.3283 51.7673 58.0809 51.7673 57.7912C51.7673 57.5014 51.6684 57.2611 51.4776 57.0668C51.2832 56.8759 51.004 56.7805 50.6401 56.7805V56.7805ZM50.9758 57.7912C50.9758 57.8795 50.9475 57.9431 50.8839 57.9926C50.8167 58.0456 50.7213 58.0739 50.6012 58.0739H49.8732V57.5085H50.6012C50.7249 57.5085 50.8238 57.5367 50.8874 57.5898C50.9475 57.6392 50.9758 57.7028 50.9758 57.7912V57.7912Z" fill="#2A2A29"/>
<path d="M55.4799 56.7241C55.0064 56.7241 54.6106 56.8831 54.3031 57.1976C53.9957 57.5122 53.8438 57.9044 53.8438 58.3603C53.8438 58.8161 53.9992 59.2084 54.3031 59.5229C54.6106 59.8374 55.0064 59.9999 55.4799 59.9999C55.9534 59.9999 56.3527 59.8409 56.6566 59.5229C56.9605 59.2084 57.116 58.8161 57.116 58.3603C57.116 57.9044 56.9605 57.5086 56.6566 57.1976C56.3492 56.8831 55.9534 56.7241 55.4799 56.7241ZM56.3245 58.3603C56.3245 58.6182 56.2467 58.8267 56.0806 59.0069C55.9181 59.1836 55.7237 59.2684 55.4799 59.2684C55.2361 59.2684 55.0382 59.1836 54.8791 59.0069C54.7166 58.8302 54.6353 58.6182 54.6353 58.3603C54.6353 58.1023 54.7131 57.8903 54.8791 57.7136C55.0417 57.5404 55.2361 57.4556 55.4799 57.4556C55.7237 57.4556 55.9216 57.5404 56.0842 57.7136C56.2467 57.8903 56.328 58.1023 56.328 58.3603H56.3245Z" fill="#2A2A29"/>
<path d="M60.9447 56.7804H59.3828V59.9396H60.1744V58.8052H60.9447C61.3052 58.8052 61.5879 58.7098 61.7787 58.519C61.9731 58.3282 62.0685 58.0844 62.0685 57.791C62.0685 57.4977 61.9695 57.2575 61.7787 57.0666C61.5879 56.8758 61.3052 56.7769 60.9447 56.7769V56.7804ZM61.2805 57.791C61.2805 57.8794 61.2522 57.943 61.1886 57.996C61.1214 58.049 61.026 58.0773 60.9059 58.0773H60.1779V57.5119H60.9059C61.0331 57.5119 61.1285 57.5402 61.1921 57.5932C61.2522 57.6426 61.2805 57.7062 61.2805 57.7946V57.791Z" fill="#2A2A29"/>
<path d="M64.5625 56.7805V57.512H65.5272V59.9397H66.3188V57.512H67.2764V56.7805H64.5625Z" fill="#2A2A29"/>
<path d="M40.3861 58.3354L41.4003 56.7805H40.4886L39.6829 58.0315H39.2164V56.7805H38.4531V59.9397H39.2164V58.6888H39.6793L39.6935 58.71L40.4886 59.9397H41.4003L40.3684 58.3601L40.3861 58.3354Z" fill="#2A2A29"/>
<defs>
<linearGradient id="paint0_linear_2986_2839" x1="32.6139" y1="33.3235" x2="52.8271" y2="0.477061" gradientUnits="userSpaceOnUse">
<stop stop-color="#B1E373"/>
<stop offset="1" stop-color="#67B444"/>
</linearGradient>
<linearGradient id="paint1_linear_2986_2839" x1="25.6941" y1="29.0618" x2="45.9038" y2="-3.78114" gradientUnits="userSpaceOnUse">
<stop stop-color="#B1E373"/>
<stop offset="1" stop-color="#67B444"/>
</linearGradient>
<linearGradient id="paint2_linear_2986_2839" x1="25.102" y1="28.6978" x2="45.3117" y2="-4.14514" gradientUnits="userSpaceOnUse">
<stop stop-color="#B1E373"/>
<stop offset="1" stop-color="#67B444"/>
</linearGradient>
<linearGradient id="paint3_linear_2986_2839" x1="34.4524" y1="34.4507" x2="54.662" y2="1.60779" gradientUnits="userSpaceOnUse">
<stop stop-color="#B1E373"/>
<stop offset="1" stop-color="#67B444"/>
</linearGradient>
<linearGradient id="paint4_linear_2986_2839" x1="42.651" y1="39.5006" x2="62.8607" y2="6.65771" gradientUnits="userSpaceOnUse">
<stop stop-color="#B1E373"/>
<stop offset="1" stop-color="#67B444"/>
</linearGradient>
<linearGradient id="paint5_linear_2986_2839" x1="31.6254" y1="32.7122" x2="51.8386" y2="-0.130753" gradientUnits="userSpaceOnUse">
<stop stop-color="#B1E373"/>
<stop offset="1" stop-color="#67B444"/>
</linearGradient>
<linearGradient id="paint6_linear_2986_2839" x1="35.1874" y1="34.9031" x2="55.3971" y2="2.06012" gradientUnits="userSpaceOnUse">
<stop stop-color="#B1E373"/>
<stop offset="1" stop-color="#67B444"/>
</linearGradient>
<linearGradient id="paint7_linear_2986_2839" x1="75.3706" y1="29.7155" x2="61.4334" y2="-2.77401" gradientUnits="userSpaceOnUse">
<stop stop-color="#1488CC"/>
<stop offset="1" stop-color="#0C4DC1"/>
</linearGradient>
<linearGradient id="paint8_linear_2986_2839" x1="67.8443" y1="32.9454" x2="53.907" y2="0.452324" gradientUnits="userSpaceOnUse">
<stop stop-color="#1488CC"/>
<stop offset="1" stop-color="#0C4DC1"/>
</linearGradient>
<linearGradient id="paint9_linear_2986_2839" x1="76.3958" y1="29.2773" x2="62.4586" y2="-3.21223" gradientUnits="userSpaceOnUse">
<stop stop-color="#1488CC"/>
<stop offset="1" stop-color="#0C4DC1"/>
</linearGradient>
<linearGradient id="paint10_linear_2986_2839" x1="67.6605" y1="33.0231" x2="53.7233" y2="0.533516" gradientUnits="userSpaceOnUse">
<stop stop-color="#1488CC"/>
<stop offset="1" stop-color="#0C4DC1"/>
</linearGradient>
<linearGradient id="paint11_linear_2986_2839" x1="60.1095" y1="36.2637" x2="46.1688" y2="3.77415" gradientUnits="userSpaceOnUse">
<stop stop-color="#1488CC"/>
<stop offset="1" stop-color="#0C4DC1"/>
</linearGradient>
<linearGradient id="paint12_linear_2986_2839" x1="71.0987" y1="31.5496" x2="57.1615" y2="-0.939988" gradientUnits="userSpaceOnUse">
<stop stop-color="#1488CC"/>
<stop offset="1" stop-color="#0C4DC1"/>
</linearGradient>
<linearGradient id="paint13_linear_2986_2839" x1="67.8273" y1="32.9524" x2="53.8901" y2="0.462862" gradientUnits="userSpaceOnUse">
<stop stop-color="#1488CC"/>
<stop offset="1" stop-color="#0C4DC1"/>
</linearGradient>
</defs>
</svg>
