<svg width="156" height="28" viewBox="0 0 156 28" fill="none" xmlns="http://www.w3.org/2000/svg">
<path d="M11.7734 0.972656H8.57812V7.81772L11.7734 11.04V0.972656Z" fill="white"/>
<path d="M6.06133 0.972656H1.78906L6.06133 5.27697V0.972656Z" fill="white"/>
<path d="M0 2.76367V7.07995H4.28413L0 2.76367Z" fill="white"/>
<path d="M6.05831 13.6804H8.58013V20.1817L11.7754 23.404V14.631L6.79706 9.61523H0V11.5372L6.05831 17.641V13.6804Z" fill="white"/>
<path d="M8.82811 24.0245L8.82514 24.0215L5.63281 27.2378H8.82811H12.0204L8.82811 24.0215V24.0245Z" fill="white"/>
<path d="M0 15.127V19.4462H4.28413L0 15.127Z" fill="white"/>
<path d="M0 21.9766V27.2374H1.5754L6.79705 21.9766H0Z" fill="white"/>
<path d="M20.0078 0.972656V5.27697L24.2801 0.972656H20.0078Z" fill="white"/>
<path d="M17.4873 0.972656H14.2891V11.04L17.4873 7.81772V0.972656Z" fill="white"/>
<path d="M21.7812 7.07995H26.0654V2.76367L21.7812 7.07995Z" fill="white"/>
<path d="M14.2891 14.631V23.404L17.4873 20.1817V13.6804H20.0062V17.641L26.0645 11.5372V9.61523H19.2674L14.2891 14.631Z" fill="white"/>
<path d="M17.2422 24.0245V24.0215V24.0245L17.2392 24.0215L14.0469 27.2378H17.2422H20.4345L17.2422 24.0215V24.0245Z" fill="white"/>
<path d="M26.0654 19.4462V15.127L21.7812 19.4462H26.0654Z" fill="white"/>
<path d="M24.4981 27.2374H26.0705V21.9766H19.2734L24.4981 27.2374Z" fill="white"/>
<path d="M112.221 10.4817C111.503 9.99144 110.667 9.73438 109.8 9.73438H108.572C107.706 9.73438 106.869 9.99443 106.151 10.4817C104.949 11.3007 104.234 12.6547 104.234 14.1045C104.234 15.5542 104.952 16.9082 106.151 17.7273C106.869 18.2175 107.706 18.4745 108.572 18.4745H109.8C110.667 18.4745 111.503 18.2145 112.221 17.7273C113.423 16.9082 114.138 15.5542 114.138 14.1045C114.138 12.6547 113.42 11.2977 112.221 10.4817ZM111.859 14.1045C111.859 15.4077 110.936 16.4688 109.8 16.4688H108.572C107.436 16.4688 106.513 15.4077 106.513 14.1045C106.513 12.8012 107.436 11.7401 108.572 11.7401H109.8C110.936 11.7401 111.859 12.8012 111.859 14.1045Z" fill="white"/>
<path d="M66.3065 13.1031H60.4114V9.73438H58.1328V18.4775H60.4114V15.1088H66.3065V18.4775H68.588V9.73438H66.3065V13.1031Z" fill="white"/>
<path d="M81.2152 9.73438L79.0642 13.1031H78.014L78.011 9.73438H75.7236V13.1031H74.6792L72.5223 9.73438H69.8047L72.6321 14.1045L69.8047 18.4775H72.5223L74.6763 15.1088H75.7236L75.7265 18.4775H78.014V15.1088H79.0613L81.2152 18.4775H83.9328L81.1054 14.1045L83.9328 9.73438H81.2152Z" fill="white"/>
<path d="M123.326 9.73438H120.606L118.455 13.1031H117.396V9.73438H115.117V18.4775H117.396V15.1088H118.452L120.606 18.4775H123.326L120.496 14.1045L123.326 9.73438Z" fill="white"/>
<path d="M85.2344 18.4775H93.1025V16.4658L87.5129 16.4688V15.1088H91.7941V13.1031H87.5129V11.7401L93.1025 11.746V9.73438H85.2344V18.4775Z" fill="white"/>
<path d="M49.989 9.73438L50.7456 11.0705L46.5 18.4775H48.7993L49.6063 17.0667H54.1367L54.9348 18.4775H57.5041L52.5108 9.73438H49.9861H49.989ZM50.7723 15.0371L51.8878 13.0882L52.9915 15.0371H50.7723Z" fill="white"/>
<path d="M100.889 9.73438H94.6797V18.4775H96.9612V15.1088H100.892C102.358 15.1088 103.557 13.9042 103.559 12.4216C103.559 10.939 102.364 9.73438 100.892 9.73438H100.889ZM96.9582 13.1031V11.7431H100.616C100.981 11.752 101.228 12.0539 101.228 12.4246C101.228 12.7773 100.958 13.0672 100.616 13.1001L96.9582 13.1061V13.1031Z" fill="white"/>
<path d="M44.5441 9.73828L40.2125 13.5345L35.8809 9.73828H34.5547V18.4814H36.8332V13.4567L40.2125 16.416L43.5917 13.4567V18.4814H45.8703V9.73828H44.5441Z" fill="white"/>
<path d="M137.319 13.9632L136.705 12.7676H136.008L136.981 14.6657L136.969 14.6926C136.945 14.7434 136.922 14.7763 136.895 14.7942C136.868 14.8121 136.827 14.8211 136.77 14.8211H136.405V15.4398H136.812C137.014 15.4398 137.165 15.395 137.266 15.3023C137.361 15.2186 137.468 15.0542 137.595 14.8062L138.628 12.7676H137.936L137.322 13.9632H137.319Z" fill="white"/>
<path d="M142.03 12.7715H140.719V15.4437H141.383V14.4842H142.03C142.333 14.4842 142.57 14.4035 142.733 14.2421C142.896 14.0807 142.977 13.8715 142.977 13.6264C142.977 13.3813 142.893 13.178 142.733 13.0136C142.57 12.8522 142.336 12.7715 142.03 12.7715ZM142.312 13.6264C142.312 13.7011 142.288 13.7549 142.235 13.7967C142.178 13.8416 142.098 13.8655 141.997 13.8655H141.386V13.3872H141.997C142.101 13.3872 142.184 13.4112 142.238 13.456C142.288 13.4978 142.312 13.5516 142.312 13.6264Z" fill="white"/>
<path d="M146.092 12.7207C145.695 12.7207 145.363 12.8552 145.104 13.1212C144.846 13.3873 144.719 13.7191 144.719 14.1047C144.719 14.4903 144.849 14.822 145.104 15.0881C145.363 15.3541 145.695 15.4916 146.092 15.4916C146.49 15.4916 146.825 15.3571 147.08 15.0881C147.336 14.822 147.466 14.4903 147.466 14.1047C147.466 13.7191 147.336 13.3843 147.08 13.1212C146.822 12.8552 146.49 12.7207 146.092 12.7207ZM146.801 14.1047C146.801 14.3229 146.736 14.4992 146.597 14.6517C146.46 14.8011 146.297 14.8729 146.092 14.8729C145.888 14.8729 145.722 14.8011 145.588 14.6517C145.452 14.5022 145.383 14.3229 145.383 14.1047C145.383 13.8865 145.449 13.7071 145.588 13.5577C145.725 13.4112 145.888 13.3394 146.092 13.3394C146.297 13.3394 146.463 13.4112 146.6 13.5577C146.736 13.7071 146.804 13.8865 146.804 14.1047H146.801Z" fill="white"/>
<path d="M150.679 12.7706H149.367V15.4428H150.032V14.4833H150.679C150.981 14.4833 151.219 14.4026 151.379 14.2412C151.542 14.0798 151.622 13.8735 151.622 13.6255C151.622 13.3774 151.539 13.1741 151.379 13.0127C151.219 12.8513 150.981 12.7676 150.679 12.7676V12.7706ZM150.96 13.6255C150.96 13.7002 150.937 13.754 150.883 13.7988C150.827 13.8437 150.747 13.8676 150.646 13.8676H150.035V13.3893H150.646C150.753 13.3893 150.833 13.4132 150.886 13.4581C150.937 13.4999 150.96 13.5537 150.96 13.6284V13.6255Z" fill="white"/>
<path d="M153.719 12.7715V13.3872H154.529V15.4437H155.196V13.3872H156V12.7715H153.719Z" fill="white"/>
<path d="M133.42 14.0867L134.271 12.7715H133.506L132.829 13.8296H132.441V12.7715H131.797V15.4437H132.441V14.3856H132.829L132.841 14.4005L133.506 15.4437H134.271L133.408 14.1076L133.42 14.0867Z" fill="white"/>
</svg>
