<svg width="252" height="36" viewBox="0 0 252 36" fill="none" xmlns="http://www.w3.org/2000/svg">
<path d="M74.765 0.273438H63.598L54.7429 14.0141H50.3953V0.273438H41.0312V35.9265H50.3953V22.1858H54.7429L63.598 35.9265H74.765L63.1472 18.1L74.765 0.273438Z" fill="#106AC6"/>
<path d="M141.361 0.273438L144.473 5.72609L127.039 35.9265H136.49L139.806 30.1685H158.417L161.703 35.9265H172.26L151.729 0.273438H141.361ZM144.575 21.895L149.155 13.956L153.692 21.895H144.575V21.895Z" fill="#106AC6"/>
<path d="M26.9434 24.9776C26.9434 23.5381 26.0419 22.3749 24.6751 22.2295H10.978C5.88887 22.2295 1.59945 18.7398 0.378051 14.0141C0.130864 13.1272 0 12.1966 0 11.2515C0.0145404 5.1881 4.94374 0.273438 10.978 0.273438H35.3041V8.48877H12.0831C10.6872 8.61964 9.58214 9.81195 9.5676 11.2369C9.5676 12.6764 10.4691 13.8396 11.8359 13.9851H25.5475C30.6367 13.9851 34.9261 17.4748 36.1475 22.2004C36.3801 23.0874 36.511 24.0034 36.511 24.9631C36.4965 31.0119 31.5672 35.9411 25.533 35.9411H1.2214V27.7257H24.4279C25.8238 27.5949 26.9289 26.4026 26.9434 24.9776V24.9776Z" fill="#106AC6"/>
<path d="M201.576 24.9776C201.576 23.5381 200.675 22.3749 199.308 22.2295H185.596C180.507 22.2295 176.218 18.7398 174.996 14.0141C174.764 13.1272 174.633 12.2111 174.633 11.2515C174.662 5.1881 179.577 0.273438 185.611 0.273438H209.937V8.48877H186.73C185.335 8.61964 184.229 9.81195 184.215 11.2369C184.215 12.6764 185.116 13.8396 186.483 13.9851H200.195C205.284 13.9851 209.573 17.4748 210.795 22.2004C211.027 23.0874 211.158 24.0034 211.158 24.9631C211.144 31.0119 206.215 35.9411 200.18 35.9411H175.854V27.7257H199.061C200.457 27.5949 201.562 26.4026 201.576 24.9776V24.9776Z" fill="#106AC6"/>
<path d="M242.436 24.9776C242.436 23.5381 241.534 22.3749 240.167 22.2295H226.456C221.367 22.2295 217.077 18.7398 215.856 14.0141C215.623 13.1272 215.492 12.2111 215.492 11.2515C215.507 5.1881 220.421 0.273438 226.456 0.273438H250.782V8.48877H227.575C226.179 8.61964 225.074 9.81195 225.06 11.2369C225.06 12.6764 225.961 13.8396 227.328 13.9851H241.04C246.129 13.9851 250.418 17.4748 251.64 22.2004C251.872 23.0874 252.003 24.0034 252.003 24.9631C251.989 31.0119 247.059 35.9411 241.025 35.9411H216.699V27.7257H239.906C241.301 27.5949 242.407 26.4026 242.421 24.9776H242.436Z" fill="#106AC6"/>
<path d="M89.3093 0.273438H79.9453V35.9265H89.3093V0.273438Z" fill="#106AC6"/>
<path d="M121.12 0.274306H95.6016V35.9274H104.966V22.1867H121.12C127.14 22.1867 132.054 17.2721 132.083 11.2232C132.083 5.17443 127.169 0.259766 121.12 0.259766V0.274306ZM104.966 14.0005V8.46056H120C121.498 8.48964 122.501 9.72558 122.501 11.2378C122.501 12.6773 121.382 13.8551 120 13.9859H104.966V14.0005Z" fill="#106AC6"/>
</svg>
